<?xml version="1.0" encoding="UTF-8"?>
<svg xmlns="http://www.w3.org/2000/svg" xmlns:xlink="http://www.w3.org/1999/xlink" width="100pt" height="100pt" viewBox="0 0 100 100" version="1.1">
<g id="surface439229">
<path style="fill-rule:nonzero;fill:rgb(78.039216%,92.941176%,90.196078%);fill-opacity:1;stroke-width:1;stroke-linecap:butt;stroke-linejoin:round;stroke:rgb(80%,80%,80%);stroke-opacity:1;stroke-miterlimit:10;" d="M 156.519838 111.80027 C 156.519838 122.250157 148.050428 130.719567 137.600541 130.719567 C 135.599786 130.719567 133.673384 130.40188 131.868649 129.827339 C 128.441681 136.485255 121.520152 141.041027 113.517134 141.041027 C 107.737928 141.041027 102.533262 138.648233 98.788607 134.822466 C 92.319951 142.805206 82.451364 147.922001 71.379621 147.922001 C 51.906061 147.922001 36.123082 132.132262 36.123082 112.658702 C 36.123082 112.354533 36.156879 112.063883 36.163638 111.759715 C 35.866229 111.779992 35.56206 111.80027 35.257891 111.80027 C 24.334853 111.80027 15.480162 102.94558 15.480162 92.022541 C 15.480162 82.505439 22.198912 74.570014 31.148233 72.670649 C 32.64204 59.841486 43.531281 49.87827 56.759243 49.87827 C 59.577873 49.87827 62.281596 50.344662 64.823095 51.182816 C 68.831363 35.602616 82.931275 24.077999 99.761947 24.077999 C 119.708658 24.077999 135.876918 40.253018 135.876918 60.19973 C 135.876918 60.213248 135.876918 60.226767 135.876918 60.240285 C 145.928006 64.059293 153.079351 73.752138 153.079351 85.141568 C 153.079351 89.622988 151.964066 93.834035 150.010626 97.538135 C 153.991857 101.012418 156.519838 106.102176 156.519838 111.80027 Z M 156.519838 111.80027 " transform="matrix(0.577907,0,0,0.577907,0.3,0.3)"/>
<path style="fill-rule:nonzero;fill:rgb(99.215686%,98.823529%,93.72549%);fill-opacity:1;stroke-width:1;stroke-linecap:butt;stroke-linejoin:round;stroke:rgb(80%,80%,80%);stroke-opacity:1;stroke-miterlimit:10;" d="M 51.385595 79.119027 L 46.228244 79.119027 L 46.228244 78.260595 C 46.228244 78.260595 24.916153 78.260595 20.637513 78.260595 C 16.365631 78.260595 12.898107 74.793071 12.898107 70.52119 C 12.898107 66.242549 16.365631 62.781784 20.637513 62.781784 C 20.961959 62.781784 21.266128 62.835859 21.577056 62.876415 C 21.955577 59.915839 24.45652 57.617675 27.518486 57.617675 C 29.390814 57.617675 31.040084 58.489625 32.141851 59.827968 C 31.952591 59.118241 31.817404 58.388236 31.817404 57.617675 C 31.817404 52.872642 35.670209 49.019838 40.422001 49.019838 C 45.011569 49.019838 48.735947 52.629307 48.972523 57.164801 C 50.391977 55.360067 52.568473 54.177188 55.042379 54.177188 C 59.314261 54.177188 62.781784 57.644712 62.781784 61.923353 C 62.781784 62.24104 62.720951 62.545209 62.687154 62.856137 C 66.594033 63.248177 69.662758 66.506162 69.662758 70.52119 C 69.662758 74.793071 66.195234 78.260595 61.923353 78.260595 C 57.644712 78.260595 51.385595 78.260595 51.385595 78.260595 Z M 51.385595 79.119027 " transform="matrix(0.577907,0,0,0.577907,0.3,0.3)"/>
<path style="fill-rule:nonzero;fill:rgb(27.843137%,16.862745%,16.078431%);fill-opacity:1;stroke-width:1;stroke-linecap:butt;stroke-linejoin:round;stroke:rgb(80%,80%,80%);stroke-opacity:1;stroke-miterlimit:10;" d="M 40.422001 48.161406 C 44.81555 48.161406 48.539927 51.189575 49.567342 55.319511 C 51.094945 54.035243 53.014588 53.318756 55.042379 53.318756 C 59.780653 53.318756 63.640216 57.17832 63.640216 61.923353 C 63.640216 61.990946 63.640216 62.058539 63.633457 62.132891 C 67.614688 62.930489 70.52119 66.398013 70.52119 70.52119 C 70.52119 75.259463 66.661626 79.119027 61.923353 79.119027 L 51.385595 79.119027 C 50.912443 79.119027 50.527163 78.733746 50.527163 78.260595 C 50.527163 77.787443 50.912443 77.402163 51.385595 77.402163 L 61.923353 77.402163 C 65.715323 77.402163 68.797567 74.31316 68.797567 70.52119 C 68.797567 66.992832 66.1344 64.066053 62.599283 63.714569 C 62.369467 63.687531 62.159928 63.572623 62.011224 63.396881 C 61.869278 63.21438 61.801685 62.984564 61.835482 62.754747 L 61.862519 62.511412 C 61.889556 62.315392 61.923353 62.119372 61.923353 61.923353 C 61.923353 58.124623 58.83435 55.042379 55.042379 55.042379 C 52.940235 55.042379 50.980036 56.00896 49.648453 57.698786 C 49.48623 57.908325 49.236136 58.029992 48.979282 58.029992 C 48.891411 58.029992 48.80354 58.016474 48.715669 57.989437 C 48.370944 57.881288 48.134369 57.57036 48.114091 57.212116 C 47.897793 53.102459 44.51814 49.87827 40.422001 49.87827 C 36.150119 49.87827 32.682596 53.352553 32.682596 57.617675 C 32.682596 58.226012 32.770467 58.854628 32.973246 59.604911 C 33.074635 59.99695 32.892134 60.402509 32.533891 60.591769 C 32.412223 60.652603 32.277037 60.6864 32.141851 60.6864 C 31.891757 60.6864 31.648422 60.578251 31.479439 60.368712 C 30.485821 59.172315 29.03933 58.482866 27.518486 58.482866 C 24.94995 58.482866 22.759935 60.416027 22.428729 62.984564 C 22.374654 63.417159 22.002892 63.734847 21.577056 63.734847 C 21.54326 63.734847 21.509463 63.734847 21.475666 63.728087 L 21.232331 63.694291 C 21.036312 63.667254 20.840292 63.640216 20.637513 63.640216 C 16.845542 63.640216 13.763299 66.72246 13.763299 70.52119 C 13.763299 74.31316 16.845542 77.402163 20.637513 77.402163 L 46.228244 77.402163 C 46.701396 77.402163 47.086676 77.787443 47.086676 78.260595 C 47.086676 78.733746 46.701396 79.119027 46.228244 79.119027 L 20.637513 79.119027 C 15.899239 79.119027 12.039676 75.259463 12.039676 70.52119 C 12.039676 65.776157 15.899239 61.923353 20.637513 61.923353 C 20.725384 61.923353 20.806495 61.923353 20.887607 61.930112 C 21.651408 58.92898 24.368649 56.759243 27.518486 56.759243 C 28.74192 56.759243 29.924799 57.090449 30.958973 57.698786 C 30.958973 57.671749 30.958973 57.644712 30.958973 57.617675 C 30.958973 52.40625 35.203817 48.161406 40.422001 48.161406 Z M 40.422001 48.161406 " transform="matrix(0.577907,0,0,0.577907,0.3,0.3)"/>
<path style="fill-rule:nonzero;fill:rgb(27.843137%,16.862745%,16.078431%);fill-opacity:1;stroke-width:1;stroke-linecap:butt;stroke-linejoin:round;stroke:rgb(80%,80%,80%);stroke-opacity:1;stroke-miterlimit:10;" d="M 37.839946 60.19973 C 38.279301 60.19973 38.732174 60.267323 39.245882 60.416027 C 39.475698 60.48362 39.610884 60.720196 39.543291 60.950013 C 39.489217 61.132514 39.320234 61.260941 39.130973 61.260941 C 39.097177 61.260941 39.049862 61.254181 39.016065 61.240663 C 38.569951 61.118995 38.198189 61.058161 37.839946 61.058161 C 35.622894 61.058161 33.750566 62.802062 33.574824 65.025874 C 33.561305 65.188097 33.459916 65.330043 33.304452 65.390877 C 33.257137 65.411154 33.203062 65.424673 33.148988 65.424673 C 33.047598 65.424673 32.946209 65.384117 32.865097 65.316524 C 32.270278 64.789298 31.513236 64.498648 30.742675 64.498648 C 28.964977 64.498648 27.518486 65.94514 27.518486 67.722837 C 27.518486 67.864782 27.457652 68.006728 27.342744 68.08108 C 27.268392 68.141914 27.173761 68.175711 27.079131 68.175711 C 27.038575 68.175711 26.998019 68.168951 26.964223 68.155433 C 26.497831 68.013487 26.085513 67.939135 25.693473 67.939135 C 23.510218 67.939135 21.685205 69.655998 21.529741 71.839254 C 21.516222 72.069071 21.326962 72.238053 21.103905 72.238053 C 21.090386 72.238053 21.083627 72.238053 21.070108 72.238053 C 20.833532 72.224535 20.65779 72.014996 20.671309 71.778421 C 20.85381 69.142291 23.064103 67.080703 25.693473 67.080703 C 26.01792 67.080703 26.349126 67.114499 26.70061 67.195611 C 26.964223 65.181338 28.674327 63.640216 30.742675 63.640216 C 31.479439 63.640216 32.195926 63.842995 32.8313 64.228276 C 33.351767 61.916593 35.426874 60.19973 37.839946 60.19973 Z M 37.839946 60.19973 " transform="matrix(0.577907,0,0,0.577907,0.3,0.3)"/>
<path style="fill-rule:nonzero;fill:rgb(27.843137%,16.862745%,16.078431%);fill-opacity:1;stroke-width:1;stroke-linecap:butt;stroke-linejoin:round;stroke:rgb(80%,80%,80%);stroke-opacity:1;stroke-miterlimit:10;" d="M 61.720573 62.781784 C 61.957149 62.781784 62.193725 62.808822 62.423541 62.835859 C 62.660117 62.869655 62.82234 63.085953 62.788544 63.322529 C 62.761507 63.538827 62.572246 63.694291 62.369467 63.694291 C 62.349189 63.694291 62.328911 63.694291 62.308633 63.687531 C 62.112613 63.667254 61.923353 63.640216 61.720573 63.640216 C 59.821209 63.640216 58.124623 64.924484 57.604156 66.769775 C 57.550082 66.959035 57.37434 67.080703 57.191839 67.080703 C 57.151283 67.080703 57.110727 67.073944 57.070171 67.067184 C 56.840355 66.999591 56.711928 66.763016 56.772762 66.533199 C 57.408136 64.322906 59.435928 62.781784 61.720573 62.781784 Z M 61.720573 62.781784 " transform="matrix(0.577907,0,0,0.577907,0.3,0.3)"/>
<path style="fill-rule:nonzero;fill:rgb(100%,100%,100%);fill-opacity:1;stroke-width:1;stroke-linecap:butt;stroke-linejoin:round;stroke:rgb(80%,80%,80%);stroke-opacity:1;stroke-miterlimit:10;" d="M 57.455451 139.317404 L 40.422001 139.317404 C 39.94209 139.317404 39.55681 138.932124 39.55681 138.458973 C 39.55681 137.985821 39.94209 137.600541 40.422001 137.600541 L 57.455451 137.600541 C 57.928603 137.600541 58.313883 137.985821 58.313883 138.458973 C 58.313883 138.932124 57.935362 139.317404 57.455451 139.317404 Z M 57.455451 139.317404 " transform="matrix(0.577907,0,0,0.577907,0.3,0.3)"/>
<path style="fill-rule:nonzero;fill:rgb(100%,100%,100%);fill-opacity:1;stroke-width:1;stroke-linecap:butt;stroke-linejoin:round;stroke:rgb(80%,80%,80%);stroke-opacity:1;stroke-miterlimit:10;" d="M 62.781784 139.317404 L 61.058161 139.317404 C 60.58501 139.317404 60.19973 138.932124 60.19973 138.458973 C 60.19973 137.985821 60.58501 137.600541 61.058161 137.600541 L 62.781784 137.600541 C 63.254936 137.600541 63.640216 137.985821 63.640216 138.458973 C 63.640216 138.932124 63.254936 139.317404 62.781784 139.317404 Z M 62.781784 139.317404 " transform="matrix(0.577907,0,0,0.577907,0.3,0.3)"/>
<path style="fill-rule:nonzero;fill:rgb(100%,100%,100%);fill-opacity:1;stroke-width:1;stroke-linecap:butt;stroke-linejoin:round;stroke:rgb(80%,80%,80%);stroke-opacity:1;stroke-miterlimit:10;" d="M 71.366103 142.757891 L 55.900811 142.757891 C 55.42766 142.757891 55.042379 142.372611 55.042379 141.899459 C 55.042379 141.426308 55.42766 141.041027 55.900811 141.041027 L 71.366103 141.041027 C 71.839254 141.041027 72.224535 141.426308 72.224535 141.899459 C 72.224535 142.372611 71.839254 142.757891 71.366103 142.757891 Z M 71.366103 142.757891 " transform="matrix(0.577907,0,0,0.577907,0.3,0.3)"/>
<path style="fill-rule:nonzero;fill:rgb(100%,100%,100%);fill-opacity:1;stroke-width:1;stroke-linecap:butt;stroke-linejoin:round;stroke:rgb(80%,80%,80%);stroke-opacity:1;stroke-miterlimit:10;" d="M 52.460324 142.757891 L 50.736701 142.757891 C 50.26355 142.757891 49.87827 142.372611 49.87827 141.899459 C 49.87827 141.426308 50.26355 141.041027 50.736701 141.041027 L 52.460324 141.041027 C 52.933476 141.041027 53.318756 141.426308 53.318756 141.899459 C 53.318756 142.372611 52.933476 142.757891 52.460324 142.757891 Z M 52.460324 142.757891 " transform="matrix(0.577907,0,0,0.577907,0.3,0.3)"/>
<path style="fill-rule:nonzero;fill:rgb(100%,100%,100%);fill-opacity:1;stroke-width:1;stroke-linecap:butt;stroke-linejoin:round;stroke:rgb(80%,80%,80%);stroke-opacity:1;stroke-miterlimit:10;" d="M 47.302974 142.757891 L 43.862487 142.757891 C 43.382577 142.757891 42.997296 142.372611 42.997296 141.899459 C 42.997296 141.426308 43.382577 141.041027 43.862487 141.041027 L 47.302974 141.041027 C 47.776126 141.041027 48.161406 141.426308 48.161406 141.899459 C 48.161406 142.372611 47.776126 142.757891 47.302974 142.757891 Z M 47.302974 142.757891 " transform="matrix(0.577907,0,0,0.577907,0.3,0.3)"/>
<path style="fill-rule:nonzero;fill:rgb(100%,100%,100%);fill-opacity:1;stroke-width:1;stroke-linecap:butt;stroke-linejoin:round;stroke:rgb(80%,80%,80%);stroke-opacity:1;stroke-miterlimit:10;" d="M 57.617675 146.198378 L 54.177188 146.198378 C 53.704037 146.198378 53.318756 145.813097 53.318756 145.339946 C 53.318756 144.866795 53.704037 144.481514 54.177188 144.481514 L 57.617675 144.481514 C 58.097586 144.481514 58.482866 144.866795 58.482866 145.339946 C 58.482866 145.813097 58.097586 146.198378 57.617675 146.198378 Z M 57.617675 146.198378 " transform="matrix(0.577907,0,0,0.577907,0.3,0.3)"/>
<path style="fill-rule:nonzero;fill:rgb(100%,100%,100%);fill-opacity:1;stroke-width:1;stroke-linecap:butt;stroke-linejoin:round;stroke:rgb(80%,80%,80%);stroke-opacity:1;stroke-miterlimit:10;" d="M 63.640216 131.577999 C 63.640216 132.05791 63.254936 132.44319 62.781784 132.44319 C 62.477616 132.44319 61.36233 132.44319 61.058161 132.44319 C 60.58501 132.44319 60.19973 132.05791 60.19973 131.577999 C 60.19973 131.104848 60.58501 130.719567 61.058161 130.719567 C 61.36233 130.719567 62.477616 130.719567 62.781784 130.719567 C 63.254936 130.719567 63.640216 131.104848 63.640216 131.577999 Z M 63.640216 131.577999 " transform="matrix(0.577907,0,0,0.577907,0.3,0.3)"/>
<path style="fill-rule:nonzero;fill:rgb(100%,100%,100%);fill-opacity:1;stroke-width:1;stroke-linecap:butt;stroke-linejoin:round;stroke:rgb(80%,80%,80%);stroke-opacity:1;stroke-miterlimit:10;" d="M 63.640216 135.018486 C 63.640216 135.491637 63.254936 135.876918 62.781784 135.876918 C 62.477616 135.876918 54.481357 135.876918 54.177188 135.876918 C 53.704037 135.876918 53.318756 135.491637 53.318756 135.018486 C 53.318756 134.545335 53.704037 134.160054 54.177188 134.160054 C 54.481357 134.160054 62.477616 134.160054 62.781784 134.160054 C 63.254936 134.160054 63.640216 134.545335 63.640216 135.018486 Z M 63.640216 135.018486 " transform="matrix(0.577907,0,0,0.577907,0.3,0.3)"/>
<path style="fill-rule:nonzero;fill:rgb(100%,100%,100%);fill-opacity:1;stroke-width:1;stroke-linecap:butt;stroke-linejoin:round;stroke:rgb(80%,80%,80%);stroke-opacity:1;stroke-miterlimit:10;" d="M 72.238053 138.458973 C 72.238053 138.932124 71.852773 139.317404 71.379621 139.317404 C 71.075453 139.317404 66.52644 139.317404 66.222271 139.317404 C 65.74236 139.317404 65.35708 138.932124 65.35708 138.458973 C 65.35708 137.985821 65.74236 137.600541 66.222271 137.600541 C 66.52644 137.600541 71.075453 137.600541 71.379621 137.600541 C 71.852773 137.600541 72.238053 137.985821 72.238053 138.458973 Z M 72.238053 138.458973 " transform="matrix(0.577907,0,0,0.577907,0.3,0.3)"/>
<path style="fill-rule:nonzero;fill:rgb(100%,100%,100%);fill-opacity:1;stroke-width:1;stroke-linecap:butt;stroke-linejoin:round;stroke:rgb(80%,80%,80%);stroke-opacity:1;stroke-miterlimit:10;" d="M 122.980162 39.55681 L 105.777729 39.55681 C 105.304577 39.55681 104.919297 39.171529 104.919297 38.698378 C 104.919297 38.225226 105.304577 37.839946 105.777729 37.839946 L 122.980162 37.839946 C 123.453314 37.839946 123.838594 38.225226 123.838594 38.698378 C 123.838594 39.171529 123.453314 39.55681 122.980162 39.55681 Z M 122.980162 39.55681 " transform="matrix(0.577907,0,0,0.577907,0.3,0.3)"/>
<path style="fill-rule:nonzero;fill:rgb(100%,100%,100%);fill-opacity:1;stroke-width:1;stroke-linecap:butt;stroke-linejoin:round;stroke:rgb(80%,80%,80%);stroke-opacity:1;stroke-miterlimit:10;" d="M 129.861136 39.55681 L 126.420649 39.55681 C 125.947497 39.55681 125.562217 39.171529 125.562217 38.698378 C 125.562217 38.225226 125.947497 37.839946 126.420649 37.839946 L 129.861136 37.839946 C 130.334287 37.839946 130.719567 38.225226 130.719567 38.698378 C 130.719567 39.171529 130.334287 39.55681 129.861136 39.55681 Z M 129.861136 39.55681 " transform="matrix(0.577907,0,0,0.577907,0.3,0.3)"/>
<path style="fill-rule:nonzero;fill:rgb(100%,100%,100%);fill-opacity:1;stroke-width:1;stroke-linecap:butt;stroke-linejoin:round;stroke:rgb(80%,80%,80%);stroke-opacity:1;stroke-miterlimit:10;" d="M 138.458973 42.997296 L 121.263299 42.997296 C 120.783388 42.997296 120.398107 42.612016 120.398107 42.138864 C 120.398107 41.665713 120.783388 41.280433 121.263299 41.280433 L 138.458973 41.280433 C 138.932124 41.280433 139.317404 41.665713 139.317404 42.138864 C 139.317404 42.612016 138.938883 42.997296 138.458973 42.997296 Z M 138.458973 42.997296 " transform="matrix(0.577907,0,0,0.577907,0.3,0.3)"/>
<path style="fill-rule:nonzero;fill:rgb(100%,100%,100%);fill-opacity:1;stroke-width:1;stroke-linecap:butt;stroke-linejoin:round;stroke:rgb(80%,80%,80%);stroke-opacity:1;stroke-miterlimit:10;" d="M 117.822812 42.997296 L 116.099189 42.997296 C 115.626037 42.997296 115.240757 42.612016 115.240757 42.138864 C 115.240757 41.665713 115.626037 41.280433 116.099189 41.280433 L 117.822812 41.280433 C 118.295963 41.280433 118.681244 41.665713 118.681244 42.138864 C 118.681244 42.612016 118.295963 42.997296 117.822812 42.997296 Z M 117.822812 42.997296 " transform="matrix(0.577907,0,0,0.577907,0.3,0.3)"/>
<path style="fill-rule:nonzero;fill:rgb(100%,100%,100%);fill-opacity:1;stroke-width:1;stroke-linecap:butt;stroke-linejoin:round;stroke:rgb(80%,80%,80%);stroke-opacity:1;stroke-miterlimit:10;" d="M 112.442404 42.997296 L 109.218216 42.997296 C 108.745064 42.997296 108.359784 42.612016 108.359784 42.138864 C 108.359784 41.665713 108.745064 41.280433 109.218216 41.280433 L 112.442404 41.280433 C 112.922315 41.280433 113.307596 41.665713 113.307596 42.138864 C 113.307596 42.612016 112.922315 42.997296 112.442404 42.997296 Z M 112.442404 42.997296 " transform="matrix(0.577907,0,0,0.577907,0.3,0.3)"/>
<path style="fill-rule:nonzero;fill:rgb(100%,100%,100%);fill-opacity:1;stroke-width:1;stroke-linecap:butt;stroke-linejoin:round;stroke:rgb(80%,80%,80%);stroke-opacity:1;stroke-miterlimit:10;" d="M 128.137513 36.123082 L 119.539676 36.123082 C 119.066524 36.123082 118.681244 35.737802 118.681244 35.257891 C 118.681244 34.78474 119.066524 34.399459 119.539676 34.399459 L 128.137513 34.399459 C 128.617423 34.399459 129.002704 34.78474 129.002704 35.257891 C 129.002704 35.737802 128.617423 36.123082 128.137513 36.123082 Z M 128.137513 36.123082 " transform="matrix(0.577907,0,0,0.577907,0.3,0.3)"/>
<path style="fill-rule:nonzero;fill:rgb(100%,100%,100%);fill-opacity:1;stroke-width:1;stroke-linecap:butt;stroke-linejoin:round;stroke:rgb(80%,80%,80%);stroke-opacity:1;stroke-miterlimit:10;" d="M 122.980162 46.437783 L 119.539676 46.437783 C 119.066524 46.437783 118.681244 46.052503 118.681244 45.579351 C 118.681244 45.1062 119.066524 44.720919 119.539676 44.720919 L 122.980162 44.720919 C 123.453314 44.720919 123.838594 45.1062 123.838594 45.579351 C 123.838594 46.052503 123.453314 46.437783 122.980162 46.437783 Z M 122.980162 46.437783 " transform="matrix(0.577907,0,0,0.577907,0.3,0.3)"/>
<path style="fill-rule:nonzero;fill:rgb(93.333333%,24.313725%,32.941176%);fill-opacity:1;stroke-width:1;stroke-linecap:butt;stroke-linejoin:round;stroke:rgb(80%,80%,80%);stroke-opacity:1;stroke-miterlimit:10;" d="M 51.169297 126.075924 C 46.383709 126.075924 42.483589 122.182564 42.483589 117.390216 L 42.483589 71.812217 C 42.483589 67.019869 46.383709 63.126509 51.169297 63.126509 L 127.711676 63.126509 C 132.497265 63.126509 136.397384 67.019869 136.397384 71.812217 L 136.397384 117.390216 C 136.397384 122.182564 132.497265 126.075924 127.711676 126.075924 Z M 51.169297 126.075924 " transform="matrix(0.577907,0,0,0.577907,0.3,0.3)"/>
<path style="fill-rule:nonzero;fill:rgb(27.843137%,16.862745%,16.078431%);fill-opacity:1;stroke-width:1;stroke-linecap:butt;stroke-linejoin:round;stroke:rgb(80%,80%,80%);stroke-opacity:1;stroke-miterlimit:10;" d="M 127.711676 64.329665 L 51.169297 64.329665 C 47.04612 64.329665 43.686745 67.682281 43.686745 71.812217 L 43.686745 117.390216 C 43.686745 121.513393 47.04612 124.872768 51.169297 124.872768 L 127.711676 124.872768 C 131.834853 124.872768 135.194228 121.513393 135.194228 117.390216 L 135.194228 71.812217 C 135.194228 67.682281 131.834853 64.329665 127.711676 64.329665 M 127.711676 61.923353 C 133.173195 61.923353 137.600541 66.343939 137.600541 71.812217 L 137.600541 117.390216 C 137.600541 122.851735 133.173195 127.279081 127.711676 127.279081 L 51.169297 127.279081 C 45.707778 127.279081 41.280433 122.851735 41.280433 117.390216 L 41.280433 71.812217 C 41.280433 66.343939 45.707778 61.923353 51.169297 61.923353 Z M 127.711676 61.923353 " transform="matrix(0.577907,0,0,0.577907,0.3,0.3)"/>
<path style="fill-rule:nonzero;fill:rgb(27.843137%,16.862745%,16.078431%);fill-opacity:1;stroke-width:1;stroke-linecap:butt;stroke-linejoin:round;stroke:rgb(80%,80%,80%);stroke-opacity:1;stroke-miterlimit:10;" d="M 131.577999 108.934325 C 131.341424 108.934325 131.152163 108.738305 131.152163 108.501729 L 131.152163 96.172755 C 131.152163 95.93618 131.341424 95.746919 131.577999 95.746919 C 131.814575 95.746919 132.010595 95.93618 132.010595 96.172755 L 132.010595 108.501729 C 132.010595 108.738305 131.814575 108.934325 131.577999 108.934325 Z M 131.577999 108.934325 " transform="matrix(0.577907,0,0,0.577907,0.3,0.3)"/>
<path style="fill-rule:nonzero;fill:rgb(27.843137%,16.862745%,16.078431%);fill-opacity:1;stroke-width:1;stroke-linecap:butt;stroke-linejoin:round;stroke:rgb(80%,80%,80%);stroke-opacity:1;stroke-miterlimit:10;" d="M 126.636947 121.689135 C 126.400371 121.689135 126.204351 121.499874 126.204351 121.263299 C 126.204351 121.019964 126.400371 120.830703 126.636947 120.830703 C 129.124371 120.830703 131.152163 118.802911 131.152163 116.315487 L 131.152163 112.800648 C 131.152163 112.564072 131.341424 112.374811 131.577999 112.374811 C 131.814575 112.374811 132.010595 112.564072 132.010595 112.800648 L 132.010595 116.315487 C 132.010595 119.276063 129.597523 121.689135 126.636947 121.689135 Z M 126.636947 121.689135 " transform="matrix(0.577907,0,0,0.577907,0.3,0.3)"/>
<path style="fill-rule:nonzero;fill:rgb(27.843137%,16.862745%,16.078431%);fill-opacity:1;stroke-width:1;stroke-linecap:butt;stroke-linejoin:round;stroke:rgb(80%,80%,80%);stroke-opacity:1;stroke-miterlimit:10;" d="M 121.405244 121.689135 L 104.060865 121.689135 C 103.824289 121.689135 103.62827 121.499874 103.62827 121.263299 C 103.62827 121.019964 103.824289 120.830703 104.060865 120.830703 L 121.405244 120.830703 C 121.64182 120.830703 121.83108 121.019964 121.83108 121.263299 C 121.83108 121.499874 121.64182 121.689135 121.405244 121.689135 Z M 121.405244 121.689135 " transform="matrix(0.577907,0,0,0.577907,0.3,0.3)"/>
<path style="fill-rule:nonzero;fill:rgb(27.843137%,16.862745%,16.078431%);fill-opacity:1;stroke-width:1;stroke-linecap:butt;stroke-linejoin:round;stroke:rgb(80%,80%,80%);stroke-opacity:1;stroke-miterlimit:10;" d="M 75.394649 121.689135 L 71.521567 121.689135 C 71.284991 121.689135 71.095731 121.499874 71.095731 121.263299 C 71.095731 121.019964 71.284991 120.830703 71.521567 120.830703 L 75.394649 120.830703 C 75.631225 120.830703 75.820485 121.019964 75.820485 121.263299 C 75.820485 121.499874 75.631225 121.689135 75.394649 121.689135 Z M 75.394649 121.689135 " transform="matrix(0.577907,0,0,0.577907,0.3,0.3)"/>
<path style="fill-rule:nonzero;fill:rgb(27.843137%,16.862745%,16.078431%);fill-opacity:1;stroke-width:1;stroke-linecap:butt;stroke-linejoin:round;stroke:rgb(80%,80%,80%);stroke-opacity:1;stroke-miterlimit:10;" d="M 67.797189 121.689135 L 58.908702 121.689135 C 58.672127 121.689135 58.482866 121.499874 58.482866 121.263299 C 58.482866 121.019964 58.672127 120.830703 58.908702 120.830703 L 67.797189 120.830703 C 68.033765 120.830703 68.229785 121.019964 68.229785 121.263299 C 68.229785 121.499874 68.033765 121.689135 67.797189 121.689135 Z M 67.797189 121.689135 " transform="matrix(0.577907,0,0,0.577907,0.3,0.3)"/>
<path style="fill-rule:nonzero;fill:rgb(27.843137%,16.862745%,16.078431%);fill-opacity:1;stroke-width:1;stroke-linecap:butt;stroke-linejoin:round;stroke:rgb(80%,80%,80%);stroke-opacity:1;stroke-miterlimit:10;" d="M 56.759243 121.689135 L 52.244027 121.689135 C 49.283451 121.689135 46.870379 119.276063 46.870379 116.315487 L 46.870379 103.486324 C 46.870379 103.249748 47.059639 103.060488 47.302974 103.060488 C 47.53955 103.060488 47.72881 103.249748 47.72881 103.486324 L 47.72881 116.315487 C 47.72881 118.802911 49.756602 120.830703 52.244027 120.830703 L 56.759243 120.830703 C 56.995819 120.830703 57.191839 121.019964 57.191839 121.263299 C 57.191839 121.499874 56.995819 121.689135 56.759243 121.689135 Z M 56.759243 121.689135 " transform="matrix(0.577907,0,0,0.577907,0.3,0.3)"/>
<path style="fill-rule:nonzero;fill:rgb(62.352941%,50.196078%,40%);fill-opacity:1;stroke-width:1;stroke-linecap:butt;stroke-linejoin:round;stroke:rgb(80%,80%,80%);stroke-opacity:1;stroke-miterlimit:10;" d="M 104.060865 51.561337 L 104.060865 59.341298 L 98.903515 59.341298 L 98.903515 53.210607 C 98.903515 51.845228 97.794989 50.736701 96.429609 50.736701 L 82.451364 50.736701 C 81.085985 50.736701 79.977459 51.845228 79.977459 53.210607 L 79.977459 59.341298 L 74.820108 59.341298 L 74.820108 51.561337 C 74.820108 48.262796 77.496793 45.579351 80.802094 45.579351 L 98.07888 45.579351 C 101.377421 45.579351 104.060865 48.262796 104.060865 51.561337 Z M 104.060865 51.561337 " transform="matrix(0.577907,0,0,0.577907,0.3,0.3)"/>
<path style="fill-rule:nonzero;fill:rgb(27.843137%,16.862745%,16.078431%);fill-opacity:1;stroke-width:1;stroke-linecap:butt;stroke-linejoin:round;stroke:rgb(80%,80%,80%);stroke-opacity:1;stroke-miterlimit:10;" d="M 104.060865 60.19973 L 98.896756 60.19973 C 98.423604 60.19973 98.038324 59.814449 98.038324 59.341298 L 98.038324 53.210607 C 98.038324 52.325138 97.315078 51.601893 96.429609 51.601893 L 82.451364 51.601893 C 81.565895 51.601893 80.84265 52.325138 80.84265 53.210607 L 80.84265 59.341298 C 80.84265 59.814449 80.457369 60.19973 79.977459 60.19973 L 74.820108 60.19973 C 74.346957 60.19973 73.961676 59.814449 73.961676 59.341298 L 73.961676 51.561337 C 73.961676 47.789644 77.030401 44.720919 80.802094 44.720919 L 98.07888 44.720919 C 101.850572 44.720919 104.919297 47.789644 104.919297 51.561337 L 104.919297 59.341298 C 104.919297 59.814449 104.534017 60.19973 104.060865 60.19973 Z M 99.761947 58.482866 L 103.202433 58.482866 L 103.202433 51.561337 C 103.202433 48.735947 100.904269 46.437783 98.07888 46.437783 L 80.802094 46.437783 C 77.976704 46.437783 75.67854 48.735947 75.67854 51.561337 L 75.67854 58.482866 L 79.119027 58.482866 L 79.119027 53.210607 C 79.119027 51.372076 80.612833 49.87827 82.451364 49.87827 L 96.429609 49.87827 C 98.26814 49.87827 99.761947 51.372076 99.761947 53.210607 Z M 99.761947 58.482866 " transform="matrix(0.577907,0,0,0.577907,0.3,0.3)"/>
<path style="fill-rule:nonzero;fill:rgb(87.843137%,65.882353%,14.509804%);fill-opacity:1;stroke-width:1;stroke-linecap:butt;stroke-linejoin:round;stroke:rgb(80%,80%,80%);stroke-opacity:1;stroke-miterlimit:10;" d="M 81.701081 60.767511 L 81.701081 62.781784 L 73.103244 62.781784 L 73.103244 60.767511 C 73.103244 59.976673 73.738619 59.341298 74.522699 59.341298 L 80.274868 59.341298 C 81.058947 59.341298 81.701081 59.976673 81.701081 60.767511 Z M 81.701081 60.767511 " transform="matrix(0.577907,0,0,0.577907,0.3,0.3)"/>
<path style="fill-rule:nonzero;fill:rgb(27.843137%,16.862745%,16.078431%);fill-opacity:1;stroke-width:1;stroke-linecap:butt;stroke-linejoin:round;stroke:rgb(80%,80%,80%);stroke-opacity:1;stroke-miterlimit:10;" d="M 81.701081 63.640216 L 73.103244 63.640216 C 72.623334 63.640216 72.238053 63.254936 72.238053 62.781784 L 72.238053 60.767511 C 72.238053 59.503521 73.265468 58.482866 74.522699 58.482866 L 80.274868 58.482866 C 81.532099 58.482866 82.559513 59.503521 82.559513 60.767511 L 82.559513 62.781784 C 82.559513 63.254936 82.174233 63.640216 81.701081 63.640216 Z M 73.961676 61.923353 L 80.84265 61.923353 L 80.84265 60.767511 C 80.84265 60.449824 80.585796 60.19973 80.274868 60.19973 L 74.522699 60.19973 C 74.211771 60.19973 73.961676 60.449824 73.961676 60.767511 Z M 73.961676 61.923353 " transform="matrix(0.577907,0,0,0.577907,0.3,0.3)"/>
<path style="fill-rule:nonzero;fill:rgb(87.843137%,65.882353%,14.509804%);fill-opacity:1;stroke-width:1;stroke-linecap:butt;stroke-linejoin:round;stroke:rgb(80%,80%,80%);stroke-opacity:1;stroke-miterlimit:10;" d="M 105.777729 60.767511 L 105.777729 62.781784 L 97.179892 62.781784 L 97.179892 60.767511 C 97.179892 59.976673 97.815267 59.341298 98.606105 59.341298 L 104.358275 59.341298 C 105.142354 59.341298 105.777729 59.976673 105.777729 60.767511 Z M 105.777729 60.767511 " transform="matrix(0.577907,0,0,0.577907,0.3,0.3)"/>
<path style="fill-rule:nonzero;fill:rgb(27.843137%,16.862745%,16.078431%);fill-opacity:1;stroke-width:1;stroke-linecap:butt;stroke-linejoin:round;stroke:rgb(80%,80%,80%);stroke-opacity:1;stroke-miterlimit:10;" d="M 105.777729 63.640216 L 97.179892 63.640216 C 96.70674 63.640216 96.32146 63.254936 96.32146 62.781784 L 96.32146 60.767511 C 96.32146 59.503521 97.342115 58.482866 98.606105 58.482866 L 104.358275 58.482866 C 105.615506 58.482866 106.64292 59.503521 106.64292 60.767511 L 106.64292 62.781784 C 106.64292 63.254936 106.25764 63.640216 105.777729 63.640216 Z M 98.038324 61.923353 L 104.919297 61.923353 L 104.919297 60.767511 C 104.919297 60.449824 104.669203 60.19973 104.358275 60.19973 L 98.606105 60.19973 C 98.295177 60.19973 98.038324 60.449824 98.038324 60.767511 Z M 98.038324 61.923353 " transform="matrix(0.577907,0,0,0.577907,0.3,0.3)"/>
<path style="fill-rule:nonzero;fill:rgb(27.843137%,16.862745%,16.078431%);fill-opacity:1;stroke-width:1;stroke-linecap:butt;stroke-linejoin:round;stroke:rgb(80%,80%,80%);stroke-opacity:1;stroke-miterlimit:10;" d="M 73.103244 77.402163 L 42.138864 77.402163 C 41.665713 77.402163 41.280433 77.016883 41.280433 76.536972 C 41.280433 76.06382 41.665713 75.67854 42.138864 75.67854 L 73.103244 75.67854 C 73.576396 75.67854 73.961676 76.06382 73.961676 76.536972 C 73.961676 77.016883 73.576396 77.402163 73.103244 77.402163 Z M 73.103244 77.402163 " transform="matrix(0.577907,0,0,0.577907,0.3,0.3)"/>
<path style="fill-rule:nonzero;fill:rgb(27.843137%,16.862745%,16.078431%);fill-opacity:1;stroke-width:1;stroke-linecap:butt;stroke-linejoin:round;stroke:rgb(80%,80%,80%);stroke-opacity:1;stroke-miterlimit:10;" d="M 88.582055 77.402163 L 76.536972 77.402163 C 76.06382 77.402163 75.67854 77.016883 75.67854 76.536972 C 75.67854 76.06382 76.06382 75.67854 76.536972 75.67854 L 88.582055 75.67854 C 89.055206 75.67854 89.440487 76.06382 89.440487 76.536972 C 89.440487 77.016883 89.055206 77.402163 88.582055 77.402163 Z M 88.582055 77.402163 " transform="matrix(0.577907,0,0,0.577907,0.3,0.3)"/>
<path style="fill-rule:nonzero;fill:rgb(27.843137%,16.862745%,16.078431%);fill-opacity:1;stroke-width:1;stroke-linecap:butt;stroke-linejoin:round;stroke:rgb(80%,80%,80%);stroke-opacity:1;stroke-miterlimit:10;" d="M 136.742109 77.402163 L 92.022541 77.402163 C 91.542631 77.402163 91.15735 77.016883 91.15735 76.536972 C 91.15735 76.06382 91.542631 75.67854 92.022541 75.67854 L 136.742109 75.67854 C 137.21526 75.67854 137.600541 76.06382 137.600541 76.536972 C 137.600541 77.016883 137.21526 77.402163 136.742109 77.402163 Z M 136.742109 77.402163 " transform="matrix(0.577907,0,0,0.577907,0.3,0.3)"/>
<path style="fill-rule:nonzero;fill:rgb(87.843137%,65.882353%,14.509804%);fill-opacity:1;stroke-width:1;stroke-linecap:butt;stroke-linejoin:round;stroke:rgb(80%,80%,80%);stroke-opacity:1;stroke-miterlimit:10;" d="M 63.937626 85.141568 L 59.90232 85.141568 C 58.63833 85.141568 57.617675 84.120913 57.617675 82.856923 L 57.617675 75.381131 C 57.617675 74.1239 58.63833 73.096485 59.90232 73.096485 L 63.937626 73.096485 C 65.194857 73.096485 66.222271 74.11714 66.222271 75.381131 L 66.222271 82.856923 C 66.222271 84.120913 65.201616 85.141568 63.937626 85.141568 Z M 63.937626 85.141568 " transform="matrix(0.577907,0,0,0.577907,0.3,0.3)"/>
<path style="fill-rule:nonzero;fill:rgb(27.843137%,16.862745%,16.078431%);fill-opacity:1;stroke-width:1;stroke-linecap:butt;stroke-linejoin:round;stroke:rgb(80%,80%,80%);stroke-opacity:1;stroke-miterlimit:10;" d="M 63.937626 86 L 59.90232 86 C 58.171938 86 56.759243 84.587305 56.759243 82.856923 L 56.759243 75.381131 C 56.759243 73.650748 58.171938 72.238053 59.90232 72.238053 L 63.937626 72.238053 C 65.668008 72.238053 67.080703 73.650748 67.080703 75.381131 L 67.080703 82.856923 C 67.080703 84.587305 65.668008 86 63.937626 86 Z M 59.90232 73.961676 C 59.118241 73.961676 58.482866 74.597051 58.482866 75.381131 L 58.482866 82.856923 C 58.482866 83.641002 59.118241 84.283136 59.90232 84.283136 L 63.937626 84.283136 C 64.721705 84.283136 65.35708 83.641002 65.35708 82.856923 L 65.35708 75.381131 C 65.35708 74.597051 64.721705 73.961676 63.937626 73.961676 Z M 59.90232 73.961676 " transform="matrix(0.577907,0,0,0.577907,0.3,0.3)"/>
<path style="fill-rule:nonzero;fill:rgb(87.843137%,65.882353%,14.509804%);fill-opacity:1;stroke-width:1;stroke-linecap:butt;stroke-linejoin:round;stroke:rgb(80%,80%,80%);stroke-opacity:1;stroke-miterlimit:10;" d="M 118.978653 85.141568 L 114.943348 85.141568 C 113.679357 85.141568 112.658702 84.120913 112.658702 82.856923 L 112.658702 75.381131 C 112.658702 74.1239 113.679357 73.096485 114.943348 73.096485 L 118.978653 73.096485 C 120.235884 73.096485 121.263299 74.11714 121.263299 75.381131 L 121.263299 82.856923 C 121.263299 84.120913 120.235884 85.141568 118.978653 85.141568 Z M 118.978653 85.141568 " transform="matrix(0.577907,0,0,0.577907,0.3,0.3)"/>
<path style="fill-rule:nonzero;fill:rgb(27.843137%,16.862745%,16.078431%);fill-opacity:1;stroke-width:1;stroke-linecap:butt;stroke-linejoin:round;stroke:rgb(80%,80%,80%);stroke-opacity:1;stroke-miterlimit:10;" d="M 118.978653 86 L 114.943348 86 C 113.212965 86 111.80027 84.587305 111.80027 82.856923 L 111.80027 75.381131 C 111.80027 73.650748 113.212965 72.238053 114.943348 72.238053 L 118.978653 72.238053 C 120.709035 72.238053 122.12173 73.650748 122.12173 75.381131 L 122.12173 82.856923 C 122.12173 84.587305 120.709035 86 118.978653 86 Z M 114.943348 73.961676 C 114.159268 73.961676 113.517134 74.597051 113.517134 75.381131 L 113.517134 82.856923 C 113.517134 83.641002 114.159268 84.283136 114.943348 84.283136 L 118.978653 84.283136 C 119.762733 84.283136 120.398107 83.641002 120.398107 82.856923 L 120.398107 75.381131 C 120.398107 74.597051 119.762733 73.961676 118.978653 73.961676 Z M 114.943348 73.961676 " transform="matrix(0.577907,0,0,0.577907,0.3,0.3)"/>
<path style="fill-rule:nonzero;fill:rgb(100%,100%,100%);fill-opacity:1;stroke-width:1;stroke-linecap:butt;stroke-linejoin:round;stroke:rgb(80%,80%,80%);stroke-opacity:1;stroke-miterlimit:10;" d="M 73.103244 100.620379 C 73.103244 91.123554 80.802094 83.417945 90.298919 83.417945 C 99.802503 83.417945 107.501352 91.123554 107.501352 100.620379 C 107.501352 110.117203 99.802503 117.822812 90.298919 117.822812 C 80.802094 117.822812 73.103244 110.117203 73.103244 100.620379 Z M 73.103244 100.620379 " transform="matrix(0.577907,0,0,0.577907,0.3,0.3)"/>
<path style="fill-rule:nonzero;fill:rgb(93.333333%,24.313725%,32.941176%);fill-opacity:1;stroke-width:1;stroke-linecap:butt;stroke-linejoin:round;stroke:rgb(80%,80%,80%);stroke-opacity:1;stroke-miterlimit:10;" d="M 99.761947 103.202433 L 92.880973 103.202433 L 92.880973 110.076647 L 87.716864 110.076647 L 87.716864 103.202433 L 80.84265 103.202433 L 80.84265 98.038324 L 87.716864 98.038324 L 87.716864 91.15735 L 92.880973 91.15735 L 92.880973 98.038324 L 99.761947 98.038324 Z M 99.761947 103.202433 " transform="matrix(0.577907,0,0,0.577907,0.3,0.3)"/>
<path style="fill-rule:nonzero;fill:rgb(27.843137%,16.862745%,16.078431%);fill-opacity:1;stroke-width:1;stroke-linecap:butt;stroke-linejoin:round;stroke:rgb(80%,80%,80%);stroke-opacity:1;stroke-miterlimit:10;" d="M 99.761947 103.62827 L 97.713877 103.62827 C 97.477301 103.62827 97.288041 103.439009 97.288041 103.202433 C 97.288041 102.965858 97.477301 102.769838 97.713877 102.769838 L 99.329351 102.769838 L 99.329351 98.470919 L 92.880973 98.470919 C 92.644398 98.470919 92.448378 98.274899 92.448378 98.038324 L 92.448378 91.589946 L 88.149459 91.589946 L 88.149459 98.038324 C 88.149459 98.274899 87.960199 98.470919 87.716864 98.470919 L 85.567404 98.470919 C 85.330829 98.470919 85.141568 98.274899 85.141568 98.038324 C 85.141568 97.801748 85.330829 97.612487 85.567404 97.612487 L 87.291027 97.612487 L 87.291027 91.15735 C 87.291027 90.920775 87.480288 90.731514 87.716864 90.731514 L 92.880973 90.731514 C 93.117549 90.731514 93.30681 90.920775 93.30681 91.15735 L 93.30681 97.612487 L 99.761947 97.612487 C 99.998522 97.612487 100.187783 97.801748 100.187783 98.038324 L 100.187783 103.202433 C 100.187783 103.439009 99.998522 103.62827 99.761947 103.62827 Z M 99.761947 103.62827 " transform="matrix(0.577907,0,0,0.577907,0.3,0.3)"/>
<path style="fill-rule:nonzero;fill:rgb(27.843137%,16.862745%,16.078431%);fill-opacity:1;stroke-width:1;stroke-linecap:butt;stroke-linejoin:round;stroke:rgb(80%,80%,80%);stroke-opacity:1;stroke-miterlimit:10;" d="M 92.880973 110.509243 L 87.716864 110.509243 C 87.480288 110.509243 87.291027 110.319982 87.291027 110.076647 L 87.291027 103.62827 L 80.84265 103.62827 C 80.599315 103.62827 80.410054 103.439009 80.410054 103.202433 L 80.410054 98.038324 C 80.410054 97.801748 80.599315 97.612487 80.84265 97.612487 L 82.938034 97.612487 C 83.17461 97.612487 83.363871 97.801748 83.363871 98.038324 C 83.363871 98.274899 83.17461 98.470919 82.938034 98.470919 L 81.268486 98.470919 L 81.268486 102.769838 L 87.716864 102.769838 C 87.960199 102.769838 88.149459 102.965858 88.149459 103.202433 L 88.149459 109.650811 L 92.448378 109.650811 L 92.448378 103.202433 C 92.448378 102.965858 92.644398 102.769838 92.880973 102.769838 L 95.192656 102.769838 C 95.429232 102.769838 95.618492 102.965858 95.618492 103.202433 C 95.618492 103.439009 95.429232 103.62827 95.192656 103.62827 L 93.30681 103.62827 L 93.30681 110.076647 C 93.30681 110.319982 93.117549 110.509243 92.880973 110.509243 Z M 92.880973 110.509243 " transform="matrix(0.577907,0,0,0.577907,0.3,0.3)"/>
<path style="fill-rule:nonzero;fill:rgb(27.843137%,16.862745%,16.078431%);fill-opacity:1;stroke-width:1;stroke-linecap:butt;stroke-linejoin:round;stroke:rgb(80%,80%,80%);stroke-opacity:1;stroke-miterlimit:10;" d="M 90.298919 118.681244 C 80.342461 118.681244 72.238053 110.576836 72.238053 100.620379 C 72.238053 99.295555 72.386758 97.970731 72.670649 96.686463 C 72.772038 96.22683 73.218153 95.92942 73.698063 96.037569 C 74.157696 96.138959 74.448346 96.598592 74.346957 97.058224 C 74.090103 98.220825 73.961676 99.423981 73.961676 100.620379 C 73.961676 109.630533 81.288764 116.957621 90.298919 116.957621 C 99.309073 116.957621 106.64292 109.630533 106.64292 100.620379 C 106.64292 91.610224 99.309073 84.283136 90.298919 84.283136 C 87.973717 84.283136 85.729628 84.756288 83.620724 85.702591 C 83.188129 85.891851 82.681181 85.702591 82.485161 85.269995 C 82.2959 84.83064 82.485161 84.323692 82.924516 84.127672 C 85.249717 83.086739 87.730382 82.559513 90.298919 82.559513 C 100.262135 82.559513 108.359784 90.663921 108.359784 100.620379 C 108.359784 110.576836 100.262135 118.681244 90.298919 118.681244 Z M 90.298919 118.681244 " transform="matrix(0.577907,0,0,0.577907,0.3,0.3)"/>
<path style="fill-rule:nonzero;fill:rgb(27.843137%,16.862745%,16.078431%);fill-opacity:1;stroke-width:1;stroke-linecap:butt;stroke-linejoin:round;stroke:rgb(80%,80%,80%);stroke-opacity:1;stroke-miterlimit:10;" d="M 74.99585 93.617738 C 74.867423 93.617738 74.732237 93.583941 74.60381 93.523107 C 74.184733 93.30005 74.015751 92.786343 74.232049 92.360507 C 75.38789 90.116417 77.04392 88.095385 79.017637 86.520467 C 79.38264 86.223057 79.923384 86.277132 80.227553 86.648893 C 80.518203 87.020655 80.464129 87.5614 80.092367 87.858809 C 78.301151 89.291782 76.807344 91.123554 75.759652 93.151346 C 75.610947 93.441996 75.313537 93.617738 74.99585 93.617738 Z M 74.99585 93.617738 " transform="matrix(0.577907,0,0,0.577907,0.3,0.3)"/>
<path style="fill-rule:nonzero;fill:rgb(99.215686%,98.823529%,93.72549%);fill-opacity:1;stroke-width:1;stroke-linecap:butt;stroke-linejoin:round;stroke:rgb(80%,80%,80%);stroke-opacity:1;stroke-miterlimit:10;" d="M 147.05681 134.160054 L 135.018486 134.160054 L 135.018486 133.301622 C 135.018486 133.301622 125.447309 133.301622 122.12173 133.301622 C 118.796152 133.301622 116.099189 130.604659 116.099189 127.279081 C 116.099189 123.953502 118.796152 121.263299 122.12173 121.263299 C 122.439418 121.263299 122.750346 121.303854 123.054515 121.357929 C 123.419517 119.343656 125.170177 117.822812 127.279081 117.822812 C 128.299736 117.822812 129.219002 118.187814 129.955766 118.782633 C 129.908451 118.464946 129.861136 118.147259 129.861136 117.822812 C 129.861136 114.017323 132.943379 110.941839 136.742109 110.941839 C 140.047409 110.941839 142.805206 113.273799 143.467618 116.38308 C 144.562626 115.159645 146.144303 114.382325 147.922001 114.382325 C 151.247579 114.382325 153.937783 117.072529 153.937783 120.398107 C 153.937783 120.722554 153.890468 121.026723 153.843153 121.337651 C 156.803729 121.716172 159.101893 124.217115 159.101893 127.279081 C 159.101893 130.604659 156.40493 133.301622 153.079351 133.301622 C 149.753773 133.301622 147.05681 133.301622 147.05681 133.301622 Z M 147.05681 134.160054 " transform="matrix(0.577907,0,0,0.577907,0.3,0.3)"/>
<path style="fill-rule:nonzero;fill:rgb(27.843137%,16.862745%,16.078431%);fill-opacity:1;stroke-width:1;stroke-linecap:butt;stroke-linejoin:round;stroke:rgb(80%,80%,80%);stroke-opacity:1;stroke-miterlimit:10;" d="M 150.07146 125.562217 C 149.834884 125.562217 149.638864 125.366197 149.638864 125.129621 C 149.638864 123.027477 151.348969 121.317373 153.457872 121.317373 C 153.511947 121.330892 154.721862 121.310614 155.593813 121.547189 C 155.823629 121.608023 155.958815 121.844599 155.897982 122.074415 C 155.837148 122.304232 155.600572 122.439418 155.370756 122.378584 C 154.606954 122.169046 153.47815 122.169046 153.457872 122.175805 C 151.82888 122.175805 150.497296 123.500629 150.497296 125.129621 C 150.497296 125.366197 150.308036 125.562217 150.07146 125.562217 Z M 150.07146 125.562217 " transform="matrix(0.577907,0,0,0.577907,0.3,0.3)"/>
<path style="fill-rule:nonzero;fill:rgb(27.843137%,16.862745%,16.078431%);fill-opacity:1;stroke-width:1;stroke-linecap:butt;stroke-linejoin:round;stroke:rgb(80%,80%,80%);stroke-opacity:1;stroke-miterlimit:10;" d="M 137.600541 133.301622 C 137.600541 132.821712 137.985821 132.44319 138.458973 132.44319 C 138.932124 132.44319 139.317404 132.821712 139.317404 133.301622 C 139.317404 133.774774 138.932124 134.160054 138.458973 134.160054 C 137.985821 134.160054 137.600541 133.774774 137.600541 133.301622 Z M 137.600541 133.301622 " transform="matrix(0.577907,0,0,0.577907,0.3,0.3)"/>
<path style="fill-rule:nonzero;fill:rgb(27.843137%,16.862745%,16.078431%);fill-opacity:1;stroke-width:1;stroke-linecap:butt;stroke-linejoin:round;stroke:rgb(80%,80%,80%);stroke-opacity:1;stroke-miterlimit:10;" d="M 153.079351 134.160054 L 147.05681 134.160054 C 146.583658 134.160054 146.198378 133.774774 146.198378 133.301622 C 146.198378 132.828471 146.583658 132.44319 147.05681 132.44319 L 153.079351 132.44319 C 155.925019 132.44319 158.236701 130.124748 158.236701 127.279081 C 158.236701 124.703785 156.30354 122.520529 153.735004 122.189323 C 153.505187 122.162286 153.295649 122.040619 153.160463 121.851358 C 153.018517 121.668857 152.964443 121.432281 152.998239 121.202465 C 153.038795 120.938852 153.079351 120.675239 153.079351 120.398107 C 153.079351 117.55244 150.767669 115.240757 147.922001 115.240757 C 146.455231 115.240757 145.10337 115.849095 144.102993 116.957621 C 143.886695 117.200956 143.54873 117.302345 143.244561 117.214474 C 142.933633 117.133363 142.690298 116.876509 142.622705 116.565581 C 142.034645 113.801025 139.560739 111.80027 136.742109 111.80027 C 133.42329 111.80027 130.719567 114.497233 130.719567 117.822812 C 130.719567 118.066147 130.753364 118.302723 130.78716 118.539298 C 130.841235 118.890782 130.679012 119.289581 130.374843 119.465323 C 130.063915 119.641065 129.692153 119.668102 129.415021 119.451805 C 128.793165 118.944857 128.049642 118.681244 127.279081 118.681244 C 125.616291 118.681244 124.196837 119.870882 123.906187 121.506634 C 123.818316 121.966266 123.39248 122.277194 122.926088 122.202842 C 122.662475 122.162286 122.392103 122.12173 122.12173 122.12173 C 119.276063 122.12173 116.957621 124.433413 116.957621 127.279081 C 116.957621 130.124748 119.276063 132.44319 122.12173 132.44319 L 135.018486 132.44319 C 135.491637 132.44319 135.876918 132.828471 135.876918 133.301622 C 135.876918 133.774774 135.491637 134.160054 135.018486 134.160054 L 122.12173 134.160054 C 118.323001 134.160054 115.240757 131.071051 115.240757 127.279081 C 115.240757 123.48711 118.323001 120.398107 122.12173 120.398107 C 122.22312 120.398107 122.31775 120.404867 122.41914 120.411626 C 123.128867 118.370316 125.062028 116.957621 127.279081 116.957621 C 127.880659 116.957621 128.461959 117.06577 129.016222 117.268549 C 129.300113 113.253521 132.659488 110.076647 136.742109 110.076647 C 139.891945 110.076647 142.703817 112.016568 143.879936 114.848717 C 145.056055 113.997045 146.46875 113.517134 147.922001 113.517134 C 151.713971 113.517134 154.802974 116.606137 154.802974 120.398107 C 154.802974 120.479219 154.796215 120.560331 154.796215 120.641442 C 157.790587 121.412003 159.960324 124.129244 159.960324 127.279081 C 159.960324 131.071051 156.871322 134.160054 153.079351 134.160054 Z M 153.079351 134.160054 " transform="matrix(0.577907,0,0,0.577907,0.3,0.3)"/>
<path style="fill-rule:nonzero;fill:rgb(27.843137%,16.862745%,16.078431%);fill-opacity:1;stroke-width:1;stroke-linecap:butt;stroke-linejoin:round;stroke:rgb(80%,80%,80%);stroke-opacity:1;stroke-miterlimit:10;" d="M 144.481514 133.301622 C 144.481514 133.774774 144.096234 134.160054 143.623082 134.160054 C 143.345951 134.160054 142.176591 134.160054 141.899459 134.160054 C 141.426308 134.160054 141.041027 133.774774 141.041027 133.301622 C 141.041027 132.828471 141.426308 132.44319 141.899459 132.44319 C 142.176591 132.44319 143.345951 132.44319 143.623082 132.44319 C 144.096234 132.44319 144.481514 132.828471 144.481514 133.301622 Z M 144.481514 133.301622 " transform="matrix(0.577907,0,0,0.577907,0.3,0.3)"/>
<path style=" stroke:none;fill-rule:nonzero;fill:rgb(78.039216%,92.941176%,90.196078%);fill-opacity:1;" d="M 86.992188 56.667969 C 88.121094 54.527344 88.765625 52.09375 88.765625 49.503906 C 88.765625 42.921875 84.632812 37.320312 78.824219 35.113281 C 78.824219 35.105469 78.824219 35.097656 78.824219 35.089844 C 78.824219 23.5625 69.480469 14.214844 57.953125 14.214844 C 48.226562 14.214844 40.078125 20.875 37.761719 29.878906 C 36.292969 29.394531 34.730469 29.125 33.101562 29.125 C 25.457031 29.125 19.164062 34.882812 18.300781 42.296875 C 13.128906 43.394531 9.246094 47.980469 9.246094 53.480469 C 9.246094 59.792969 14.363281 64.910156 20.675781 64.910156 C 20.851562 64.910156 21.027344 64.898438 21.199219 64.886719 C 21.195312 65.0625 21.175781 65.230469 21.175781 65.40625 C 21.175781 76.660156 30.296875 85.785156 41.550781 85.785156 C 47.949219 85.785156 53.652344 82.828125 57.390625 78.214844 C 59.554688 80.425781 62.5625 81.808594 65.902344 81.808594 C 70.527344 81.808594 74.527344 79.175781 76.507812 75.328125 C 77.550781 75.660156 78.664062 75.84375 79.820312 75.84375 C 85.859375 75.84375 90.753906 70.949219 90.753906 64.910156 C 90.753906 61.617188 89.292969 58.675781 86.992188 56.667969 Z M 86.992188 56.667969 "/>
<path style=" stroke:none;fill-rule:nonzero;fill:rgb(99.215686%,98.823529%,93.72549%);fill-opacity:1;" d="M 29.996094 45.527344 C 29.996094 45.527344 33.613281 45.527344 36.085938 45.527344 C 38.554688 45.527344 40.558594 43.523438 40.558594 41.054688 C 40.558594 38.734375 38.785156 36.851562 36.527344 36.625 C 36.546875 36.445312 36.582031 36.269531 36.582031 36.085938 C 36.582031 33.613281 34.578125 31.609375 32.109375 31.609375 C 30.679688 31.609375 29.421875 32.292969 28.601562 33.335938 C 28.464844 30.714844 26.3125 28.628906 23.660156 28.628906 C 20.914062 28.628906 18.6875 30.855469 18.6875 33.597656 C 18.6875 34.042969 18.765625 34.464844 18.875 34.875 C 18.238281 34.101562 17.285156 33.597656 16.203125 33.597656 C 14.433594 33.597656 12.988281 34.925781 12.769531 36.636719 C 12.589844 36.613281 12.414062 36.582031 12.226562 36.582031 C 9.757812 36.582031 7.753906 38.582031 7.753906 41.054688 C 7.753906 43.523438 9.757812 45.527344 12.226562 45.527344 C 14.699219 45.527344 21.671875 45.527344 21.671875 45.527344 L 27.015625 45.527344 L 27.015625 46.023438 L 29.996094 46.023438 Z M 29.996094 45.527344 "/>
<path style=" stroke:none;fill-rule:nonzero;fill:rgb(27.843137%,16.862745%,16.078431%);fill-opacity:1;" d="M 23.660156 28.132812 C 20.644531 28.132812 18.191406 30.585938 18.191406 33.597656 C 18.191406 33.613281 18.191406 33.628906 18.191406 33.644531 C 17.59375 33.292969 16.910156 33.101562 16.203125 33.101562 C 14.382812 33.101562 12.8125 34.355469 12.371094 36.089844 C 12.324219 36.085938 12.277344 36.085938 12.226562 36.085938 C 9.488281 36.085938 7.257812 38.3125 7.257812 41.054688 C 7.257812 43.792969 9.488281 46.023438 12.226562 46.023438 L 27.015625 46.023438 C 27.289062 46.023438 27.511719 45.800781 27.511719 45.527344 C 27.511719 45.253906 27.289062 45.03125 27.015625 45.03125 L 12.226562 45.03125 C 10.035156 45.03125 8.253906 43.246094 8.253906 41.054688 C 8.253906 38.859375 10.035156 37.078125 12.226562 37.078125 C 12.34375 37.078125 12.457031 37.09375 12.570312 37.109375 L 12.710938 37.128906 C 12.730469 37.132812 12.75 37.132812 12.769531 37.132812 C 13.015625 37.132812 13.230469 36.949219 13.261719 36.699219 C 13.453125 35.214844 14.71875 34.097656 16.203125 34.097656 C 17.082031 34.097656 17.917969 34.496094 18.492188 35.1875 C 18.589844 35.308594 18.730469 35.371094 18.875 35.371094 C 18.953125 35.371094 19.03125 35.351562 19.101562 35.316406 C 19.308594 35.207031 19.414062 34.972656 19.355469 34.746094 C 19.238281 34.3125 19.1875 33.949219 19.1875 33.597656 C 19.1875 31.132812 21.191406 29.125 23.660156 29.125 C 26.027344 29.125 27.980469 30.988281 28.105469 33.363281 C 28.117188 33.570312 28.253906 33.75 28.453125 33.8125 C 28.503906 33.828125 28.554688 33.835938 28.605469 33.835938 C 28.753906 33.835938 28.898438 33.765625 28.992188 33.644531 C 29.761719 32.667969 30.894531 32.109375 32.109375 32.109375 C 34.300781 32.109375 36.085938 33.890625 36.085938 36.085938 C 36.085938 36.199219 36.066406 36.3125 36.050781 36.425781 L 36.035156 36.566406 C 36.015625 36.699219 36.054688 36.832031 36.136719 36.9375 C 36.222656 37.039062 36.34375 37.105469 36.476562 37.121094 C 38.519531 37.324219 40.058594 39.015625 40.058594 41.054688 C 40.058594 43.246094 38.277344 45.03125 36.085938 45.03125 L 29.996094 45.03125 C 29.722656 45.03125 29.5 45.253906 29.5 45.527344 C 29.5 45.800781 29.722656 46.023438 29.996094 46.023438 L 36.085938 46.023438 C 38.824219 46.023438 41.054688 43.792969 41.054688 41.054688 C 41.054688 38.671875 39.375 36.667969 37.074219 36.207031 C 37.078125 36.164062 37.078125 36.125 37.078125 36.085938 C 37.078125 33.34375 34.847656 31.113281 32.109375 31.113281 C 30.9375 31.113281 29.828125 31.527344 28.945312 32.269531 C 28.351562 29.882812 26.199219 28.132812 23.660156 28.132812 Z M 23.660156 28.132812 "/>
<path style=" stroke:none;fill-rule:nonzero;fill:rgb(27.843137%,16.862745%,16.078431%);fill-opacity:1;" d="M 22.167969 35.089844 C 20.773438 35.089844 19.574219 36.082031 19.273438 37.417969 C 18.90625 37.195312 18.492188 37.078125 18.066406 37.078125 C 16.871094 37.078125 15.882812 37.96875 15.730469 39.132812 C 15.527344 39.085938 15.335938 39.066406 15.148438 39.066406 C 13.628906 39.066406 12.351562 40.257812 12.246094 41.78125 C 12.238281 41.917969 12.339844 42.039062 12.476562 42.046875 C 12.484375 42.046875 12.488281 42.046875 12.496094 42.046875 C 12.625 42.046875 12.734375 41.949219 12.742188 41.816406 C 12.832031 40.554688 13.886719 39.5625 15.148438 39.5625 C 15.375 39.5625 15.613281 39.605469 15.882812 39.6875 C 15.902344 39.695312 15.925781 39.699219 15.949219 39.699219 C 16.003906 39.699219 16.058594 39.679688 16.101562 39.644531 C 16.167969 39.601562 16.203125 39.519531 16.203125 39.4375 C 16.203125 38.410156 17.039062 37.574219 18.066406 37.574219 C 18.511719 37.574219 18.949219 37.742188 19.292969 38.046875 C 19.339844 38.085938 19.398438 38.109375 19.457031 38.109375 C 19.488281 38.109375 19.519531 38.101562 19.546875 38.089844 C 19.636719 38.054688 19.695312 37.972656 19.703125 37.878906 C 19.804688 36.59375 20.886719 35.585938 22.167969 35.585938 C 22.375 35.585938 22.589844 35.621094 22.847656 35.691406 C 22.867188 35.699219 22.894531 35.703125 22.914062 35.703125 C 23.023438 35.703125 23.121094 35.628906 23.152344 35.523438 C 23.191406 35.390625 23.113281 35.253906 22.980469 35.214844 C 22.683594 35.128906 22.421875 35.089844 22.167969 35.089844 Z M 22.167969 35.089844 "/>
<path style=" stroke:none;fill-rule:nonzero;fill:rgb(27.843137%,16.862745%,16.078431%);fill-opacity:1;" d="M 35.96875 36.582031 C 34.648438 36.582031 33.476562 37.472656 33.109375 38.75 C 33.074219 38.882812 33.148438 39.019531 33.28125 39.058594 C 33.304688 39.0625 33.328125 39.066406 33.351562 39.066406 C 33.457031 39.066406 33.558594 38.996094 33.589844 38.886719 C 33.890625 37.820312 34.871094 37.078125 35.96875 37.078125 C 36.085938 37.078125 36.195312 37.09375 36.308594 37.105469 C 36.320312 37.109375 36.332031 37.109375 36.34375 37.109375 C 36.460938 37.109375 36.570312 37.019531 36.585938 36.894531 C 36.605469 36.757812 36.511719 36.632812 36.375 36.613281 C 36.242188 36.597656 36.105469 36.582031 35.96875 36.582031 Z M 35.96875 36.582031 "/>
<path style=" stroke:none;fill-rule:nonzero;fill:rgb(100%,100%,100%);fill-opacity:1;" d="M 33.503906 80.8125 L 23.660156 80.8125 C 23.382812 80.8125 23.160156 80.589844 23.160156 80.316406 C 23.160156 80.042969 23.382812 79.820312 23.660156 79.820312 L 33.503906 79.820312 C 33.777344 79.820312 34 80.042969 34 80.316406 C 34 80.589844 33.78125 80.8125 33.503906 80.8125 Z M 33.503906 80.8125 "/>
<path style=" stroke:none;fill-rule:nonzero;fill:rgb(100%,100%,100%);fill-opacity:1;" d="M 36.582031 80.8125 L 35.585938 80.8125 C 35.3125 80.8125 35.089844 80.589844 35.089844 80.316406 C 35.089844 80.042969 35.3125 79.820312 35.585938 79.820312 L 36.582031 79.820312 C 36.855469 79.820312 37.078125 80.042969 37.078125 80.316406 C 37.078125 80.589844 36.855469 80.8125 36.582031 80.8125 Z M 36.582031 80.8125 "/>
<path style=" stroke:none;fill-rule:nonzero;fill:rgb(100%,100%,100%);fill-opacity:1;" d="M 41.542969 82.800781 L 32.605469 82.800781 C 32.332031 82.800781 32.109375 82.578125 32.109375 82.304688 C 32.109375 82.03125 32.332031 81.808594 32.605469 81.808594 L 41.542969 81.808594 C 41.816406 81.808594 42.039062 82.03125 42.039062 82.304688 C 42.039062 82.578125 41.816406 82.800781 41.542969 82.800781 Z M 41.542969 82.800781 "/>
<path style=" stroke:none;fill-rule:nonzero;fill:rgb(100%,100%,100%);fill-opacity:1;" d="M 30.617188 82.800781 L 29.621094 82.800781 C 29.347656 82.800781 29.125 82.578125 29.125 82.304688 C 29.125 82.03125 29.347656 81.808594 29.621094 81.808594 L 30.617188 81.808594 C 30.890625 81.808594 31.113281 82.03125 31.113281 82.304688 C 31.113281 82.578125 30.890625 82.800781 30.617188 82.800781 Z M 30.617188 82.800781 "/>
<path style=" stroke:none;fill-rule:nonzero;fill:rgb(100%,100%,100%);fill-opacity:1;" d="M 27.636719 82.800781 L 25.648438 82.800781 C 25.371094 82.800781 25.148438 82.578125 25.148438 82.304688 C 25.148438 82.03125 25.371094 81.808594 25.648438 81.808594 L 27.636719 81.808594 C 27.910156 81.808594 28.132812 82.03125 28.132812 82.304688 C 28.132812 82.578125 27.910156 82.800781 27.636719 82.800781 Z M 27.636719 82.800781 "/>
<path style=" stroke:none;fill-rule:nonzero;fill:rgb(100%,100%,100%);fill-opacity:1;" d="M 33.597656 84.789062 L 31.609375 84.789062 C 31.335938 84.789062 31.113281 84.566406 31.113281 84.292969 C 31.113281 84.019531 31.335938 83.796875 31.609375 83.796875 L 33.597656 83.796875 C 33.875 83.796875 34.097656 84.019531 34.097656 84.292969 C 34.097656 84.566406 33.875 84.789062 33.597656 84.789062 Z M 33.597656 84.789062 "/>
<path style=" stroke:none;fill-rule:nonzero;fill:rgb(100%,100%,100%);fill-opacity:1;" d="M 36.582031 75.84375 C 36.40625 75.84375 35.761719 75.84375 35.585938 75.84375 C 35.3125 75.84375 35.089844 76.066406 35.089844 76.339844 C 35.089844 76.617188 35.3125 76.839844 35.585938 76.839844 C 35.761719 76.839844 36.40625 76.839844 36.582031 76.839844 C 36.855469 76.839844 37.078125 76.617188 37.078125 76.339844 C 37.078125 76.066406 36.855469 75.84375 36.582031 75.84375 Z M 36.582031 75.84375 "/>
<path style=" stroke:none;fill-rule:nonzero;fill:rgb(100%,100%,100%);fill-opacity:1;" d="M 36.582031 77.832031 C 36.40625 77.832031 31.785156 77.832031 31.609375 77.832031 C 31.335938 77.832031 31.113281 78.054688 31.113281 78.328125 C 31.113281 78.601562 31.335938 78.824219 31.609375 78.824219 C 31.785156 78.824219 36.40625 78.824219 36.582031 78.824219 C 36.855469 78.824219 37.078125 78.601562 37.078125 78.328125 C 37.078125 78.054688 36.855469 77.832031 36.582031 77.832031 Z M 36.582031 77.832031 "/>
<path style=" stroke:none;fill-rule:nonzero;fill:rgb(100%,100%,100%);fill-opacity:1;" d="M 41.550781 79.820312 C 41.375 79.820312 38.746094 79.820312 38.570312 79.820312 C 38.292969 79.820312 38.070312 80.042969 38.070312 80.316406 C 38.070312 80.589844 38.292969 80.8125 38.570312 80.8125 C 38.746094 80.8125 41.375 80.8125 41.550781 80.8125 C 41.824219 80.8125 42.046875 80.589844 42.046875 80.316406 C 42.046875 80.042969 41.824219 79.820312 41.550781 79.820312 Z M 41.550781 79.820312 "/>
<path style=" stroke:none;fill-rule:nonzero;fill:rgb(100%,100%,100%);fill-opacity:1;" d="M 71.371094 23.160156 L 61.429688 23.160156 C 61.15625 23.160156 60.933594 22.9375 60.933594 22.664062 C 60.933594 22.390625 61.15625 22.167969 61.429688 22.167969 L 71.371094 22.167969 C 71.644531 22.167969 71.867188 22.390625 71.867188 22.664062 C 71.867188 22.9375 71.644531 23.160156 71.371094 23.160156 Z M 71.371094 23.160156 "/>
<path style=" stroke:none;fill-rule:nonzero;fill:rgb(100%,100%,100%);fill-opacity:1;" d="M 75.347656 23.160156 L 73.359375 23.160156 C 73.085938 23.160156 72.863281 22.9375 72.863281 22.664062 C 72.863281 22.390625 73.085938 22.167969 73.359375 22.167969 L 75.347656 22.167969 C 75.621094 22.167969 75.84375 22.390625 75.84375 22.664062 C 75.84375 22.9375 75.621094 23.160156 75.347656 23.160156 Z M 75.347656 23.160156 "/>
<path style=" stroke:none;fill-rule:nonzero;fill:rgb(100%,100%,100%);fill-opacity:1;" d="M 80.316406 25.148438 L 70.378906 25.148438 C 70.101562 25.148438 69.878906 24.925781 69.878906 24.652344 C 69.878906 24.378906 70.101562 24.15625 70.378906 24.15625 L 80.316406 24.15625 C 80.589844 24.15625 80.8125 24.378906 80.8125 24.652344 C 80.8125 24.925781 80.59375 25.148438 80.316406 25.148438 Z M 80.316406 25.148438 "/>
<path style=" stroke:none;fill-rule:nonzero;fill:rgb(100%,100%,100%);fill-opacity:1;" d="M 68.390625 25.148438 L 67.394531 25.148438 C 67.121094 25.148438 66.898438 24.925781 66.898438 24.652344 C 66.898438 24.378906 67.121094 24.15625 67.394531 24.15625 L 68.390625 24.15625 C 68.664062 24.15625 68.886719 24.378906 68.886719 24.652344 C 68.886719 24.925781 68.664062 25.148438 68.390625 25.148438 Z M 68.390625 25.148438 "/>
<path style=" stroke:none;fill-rule:nonzero;fill:rgb(100%,100%,100%);fill-opacity:1;" d="M 65.28125 25.148438 L 63.417969 25.148438 C 63.144531 25.148438 62.921875 24.925781 62.921875 24.652344 C 62.921875 24.378906 63.144531 24.15625 63.417969 24.15625 L 65.28125 24.15625 C 65.558594 24.15625 65.78125 24.378906 65.78125 24.652344 C 65.78125 24.925781 65.558594 25.148438 65.28125 25.148438 Z M 65.28125 25.148438 "/>
<path style=" stroke:none;fill-rule:nonzero;fill:rgb(100%,100%,100%);fill-opacity:1;" d="M 74.351562 21.175781 L 69.382812 21.175781 C 69.109375 21.175781 68.886719 20.953125 68.886719 20.675781 C 68.886719 20.402344 69.109375 20.179688 69.382812 20.179688 L 74.351562 20.179688 C 74.628906 20.179688 74.851562 20.402344 74.851562 20.675781 C 74.851562 20.953125 74.628906 21.175781 74.351562 21.175781 Z M 74.351562 21.175781 "/>
<path style=" stroke:none;fill-rule:nonzero;fill:rgb(100%,100%,100%);fill-opacity:1;" d="M 71.371094 27.136719 L 69.382812 27.136719 C 69.109375 27.136719 68.886719 26.914062 68.886719 26.640625 C 68.886719 26.367188 69.109375 26.144531 69.382812 26.144531 L 71.371094 26.144531 C 71.644531 26.144531 71.867188 26.367188 71.867188 26.640625 C 71.867188 26.914062 71.644531 27.136719 71.371094 27.136719 Z M 71.371094 27.136719 "/>
<path style=" stroke:none;fill-rule:nonzero;fill:rgb(93.333333%,24.313725%,32.941176%);fill-opacity:1;" d="M 29.871094 73.160156 C 27.105469 73.160156 24.851562 70.910156 24.851562 68.140625 L 24.851562 41.800781 C 24.851562 39.03125 27.105469 36.78125 29.871094 36.78125 L 74.105469 36.78125 C 76.871094 36.78125 79.125 39.03125 79.125 41.800781 L 79.125 68.140625 C 79.125 70.910156 76.871094 73.160156 74.105469 73.160156 Z M 29.871094 73.160156 "/>
<path style=" stroke:none;fill-rule:nonzero;fill:rgb(27.843137%,16.862745%,16.078431%);fill-opacity:1;" d="M 74.105469 37.476562 C 76.488281 37.476562 78.429688 39.414062 78.429688 41.800781 L 78.429688 68.140625 C 78.429688 70.523438 76.488281 72.464844 74.105469 72.464844 L 29.871094 72.464844 C 27.488281 72.464844 25.546875 70.523438 25.546875 68.140625 L 25.546875 41.800781 C 25.546875 39.414062 27.488281 37.476562 29.871094 37.476562 L 74.105469 37.476562 M 74.105469 36.085938 L 29.871094 36.085938 C 26.714844 36.085938 24.15625 38.640625 24.15625 41.800781 L 24.15625 68.140625 C 24.15625 71.296875 26.714844 73.855469 29.871094 73.855469 L 74.105469 73.855469 C 77.261719 73.855469 79.820312 71.296875 79.820312 68.140625 L 79.820312 41.800781 C 79.820312 38.640625 77.261719 36.085938 74.105469 36.085938 Z M 74.105469 36.085938 "/>
<path style=" stroke:none;fill-rule:nonzero;fill:rgb(27.843137%,16.862745%,16.078431%);fill-opacity:1;" d="M 76.339844 63.253906 C 76.203125 63.253906 76.09375 63.140625 76.09375 63.003906 L 76.09375 55.878906 C 76.09375 55.742188 76.203125 55.632812 76.339844 55.632812 C 76.476562 55.632812 76.589844 55.742188 76.589844 55.878906 L 76.589844 63.003906 C 76.589844 63.140625 76.476562 63.253906 76.339844 63.253906 Z M 76.339844 63.253906 "/>
<path style=" stroke:none;fill-rule:nonzero;fill:rgb(27.843137%,16.862745%,16.078431%);fill-opacity:1;" d="M 73.484375 70.625 C 73.347656 70.625 73.234375 70.515625 73.234375 70.378906 C 73.234375 70.238281 73.347656 70.128906 73.484375 70.128906 C 74.921875 70.128906 76.09375 68.957031 76.09375 67.519531 L 76.09375 65.488281 C 76.09375 65.351562 76.203125 65.242188 76.339844 65.242188 C 76.476562 65.242188 76.589844 65.351562 76.589844 65.488281 L 76.589844 67.519531 C 76.589844 69.230469 75.195312 70.625 73.484375 70.625 Z M 73.484375 70.625 "/>
<path style=" stroke:none;fill-rule:nonzero;fill:rgb(27.843137%,16.862745%,16.078431%);fill-opacity:1;" d="M 70.460938 70.625 L 60.4375 70.625 C 60.300781 70.625 60.1875 70.515625 60.1875 70.378906 C 60.1875 70.238281 60.300781 70.128906 60.4375 70.128906 L 70.460938 70.128906 C 70.597656 70.128906 70.707031 70.238281 70.707031 70.378906 C 70.707031 70.515625 70.597656 70.625 70.460938 70.625 Z M 70.460938 70.625 "/>
<path style=" stroke:none;fill-rule:nonzero;fill:rgb(27.843137%,16.862745%,16.078431%);fill-opacity:1;" d="M 43.871094 70.625 L 41.632812 70.625 C 41.496094 70.625 41.386719 70.515625 41.386719 70.378906 C 41.386719 70.238281 41.496094 70.128906 41.632812 70.128906 L 43.871094 70.128906 C 44.007812 70.128906 44.117188 70.238281 44.117188 70.378906 C 44.117188 70.515625 44.007812 70.625 43.871094 70.625 Z M 43.871094 70.625 "/>
<path style=" stroke:none;fill-rule:nonzero;fill:rgb(27.843137%,16.862745%,16.078431%);fill-opacity:1;" d="M 39.480469 70.625 L 34.34375 70.625 C 34.207031 70.625 34.097656 70.515625 34.097656 70.378906 C 34.097656 70.238281 34.207031 70.128906 34.34375 70.128906 L 39.480469 70.128906 C 39.617188 70.128906 39.730469 70.238281 39.730469 70.378906 C 39.730469 70.515625 39.617188 70.625 39.480469 70.625 Z M 39.480469 70.625 "/>
<path style=" stroke:none;fill-rule:nonzero;fill:rgb(27.843137%,16.862745%,16.078431%);fill-opacity:1;" d="M 33.101562 70.625 L 30.492188 70.625 C 28.78125 70.625 27.386719 69.230469 27.386719 67.519531 L 27.386719 60.105469 C 27.386719 59.96875 27.496094 59.859375 27.636719 59.859375 C 27.773438 59.859375 27.882812 59.96875 27.882812 60.105469 L 27.882812 67.519531 C 27.882812 68.957031 29.054688 70.128906 30.492188 70.128906 L 33.101562 70.128906 C 33.238281 70.128906 33.351562 70.238281 33.351562 70.378906 C 33.351562 70.515625 33.238281 70.625 33.101562 70.625 Z M 33.101562 70.625 "/>
<path style=" stroke:none;fill-rule:nonzero;fill:rgb(62.352941%,50.196078%,40%);fill-opacity:1;" d="M 56.980469 26.640625 L 46.996094 26.640625 C 45.085938 26.640625 43.539062 28.191406 43.539062 30.097656 L 43.539062 34.59375 L 46.519531 34.59375 L 46.519531 31.050781 C 46.519531 30.261719 47.160156 29.621094 47.949219 29.621094 L 56.027344 29.621094 C 56.816406 29.621094 57.457031 30.261719 57.457031 31.050781 L 57.457031 34.59375 L 60.4375 34.59375 L 60.4375 30.097656 C 60.4375 28.191406 58.886719 26.640625 56.980469 26.640625 Z M 56.980469 26.640625 "/>
<path style=" stroke:none;fill-rule:nonzero;fill:rgb(27.843137%,16.862745%,16.078431%);fill-opacity:1;" d="M 60.4375 35.089844 L 57.453125 35.089844 C 57.179688 35.089844 56.957031 34.867188 56.957031 34.59375 L 56.957031 31.050781 C 56.957031 30.539062 56.539062 30.121094 56.027344 30.121094 L 47.949219 30.121094 C 47.4375 30.121094 47.019531 30.539062 47.019531 31.050781 L 47.019531 34.59375 C 47.019531 34.867188 46.796875 35.089844 46.519531 35.089844 L 43.539062 35.089844 C 43.265625 35.089844 43.042969 34.867188 43.042969 34.59375 L 43.042969 30.097656 C 43.042969 27.917969 44.816406 26.144531 46.996094 26.144531 L 56.980469 26.144531 C 59.160156 26.144531 60.933594 27.917969 60.933594 30.097656 L 60.933594 34.59375 C 60.933594 34.867188 60.710938 35.089844 60.4375 35.089844 Z M 57.953125 34.097656 L 59.941406 34.097656 L 59.941406 30.097656 C 59.941406 28.464844 58.613281 27.136719 56.980469 27.136719 L 46.996094 27.136719 C 45.363281 27.136719 44.035156 28.464844 44.035156 30.097656 L 44.035156 34.097656 L 46.023438 34.097656 L 46.023438 31.050781 C 46.023438 29.988281 46.886719 29.125 47.949219 29.125 L 56.027344 29.125 C 57.089844 29.125 57.953125 29.988281 57.953125 31.050781 Z M 57.953125 34.097656 "/>
<path style=" stroke:none;fill-rule:nonzero;fill:rgb(87.843137%,65.882353%,14.509804%);fill-opacity:1;" d="M 46.691406 34.59375 L 43.367188 34.59375 C 42.914062 34.59375 42.546875 34.960938 42.546875 35.417969 L 42.546875 36.582031 L 47.515625 36.582031 L 47.515625 35.417969 C 47.515625 34.960938 47.144531 34.59375 46.691406 34.59375 Z M 46.691406 34.59375 "/>
<path style=" stroke:none;fill-rule:nonzero;fill:rgb(27.843137%,16.862745%,16.078431%);fill-opacity:1;" d="M 47.515625 37.078125 L 42.546875 37.078125 C 42.269531 37.078125 42.046875 36.855469 42.046875 36.582031 L 42.046875 35.417969 C 42.046875 34.6875 42.640625 34.097656 43.367188 34.097656 L 46.691406 34.097656 C 47.417969 34.097656 48.011719 34.6875 48.011719 35.417969 L 48.011719 36.582031 C 48.011719 36.855469 47.789062 37.078125 47.515625 37.078125 Z M 43.042969 36.085938 L 47.019531 36.085938 L 47.019531 35.417969 C 47.019531 35.234375 46.871094 35.089844 46.691406 35.089844 L 43.367188 35.089844 C 43.1875 35.089844 43.042969 35.234375 43.042969 35.417969 Z M 43.042969 36.085938 "/>
<path style=" stroke:none;fill-rule:nonzero;fill:rgb(87.843137%,65.882353%,14.509804%);fill-opacity:1;" d="M 60.609375 34.59375 L 57.285156 34.59375 C 56.828125 34.59375 56.460938 34.960938 56.460938 35.417969 L 56.460938 36.582031 L 61.429688 36.582031 L 61.429688 35.417969 C 61.429688 34.960938 61.0625 34.59375 60.609375 34.59375 Z M 60.609375 34.59375 "/>
<path style=" stroke:none;fill-rule:nonzero;fill:rgb(27.843137%,16.862745%,16.078431%);fill-opacity:1;" d="M 61.429688 37.078125 L 56.460938 37.078125 C 56.1875 37.078125 55.964844 36.855469 55.964844 36.582031 L 55.964844 35.417969 C 55.964844 34.6875 56.554688 34.097656 57.285156 34.097656 L 60.609375 34.097656 C 61.335938 34.097656 61.929688 34.6875 61.929688 35.417969 L 61.929688 36.582031 C 61.929688 36.855469 61.707031 37.078125 61.429688 37.078125 Z M 56.957031 36.085938 L 60.933594 36.085938 L 60.933594 35.417969 C 60.933594 35.234375 60.789062 35.089844 60.609375 35.089844 L 57.285156 35.089844 C 57.105469 35.089844 56.957031 35.234375 56.957031 35.417969 Z M 56.957031 36.085938 "/>
<path style=" stroke:none;fill-rule:nonzero;fill:rgb(27.843137%,16.862745%,16.078431%);fill-opacity:1;" d="M 42.546875 45.03125 L 24.652344 45.03125 C 24.378906 45.03125 24.15625 44.808594 24.15625 44.53125 C 24.15625 44.257812 24.378906 44.035156 24.652344 44.035156 L 42.546875 44.035156 C 42.820312 44.035156 43.042969 44.257812 43.042969 44.53125 C 43.042969 44.808594 42.820312 45.03125 42.546875 45.03125 Z M 42.546875 45.03125 "/>
<path style=" stroke:none;fill-rule:nonzero;fill:rgb(27.843137%,16.862745%,16.078431%);fill-opacity:1;" d="M 51.492188 45.03125 L 44.53125 45.03125 C 44.257812 45.03125 44.035156 44.808594 44.035156 44.53125 C 44.035156 44.257812 44.257812 44.035156 44.53125 44.035156 L 51.492188 44.035156 C 51.765625 44.035156 51.988281 44.257812 51.988281 44.53125 C 51.988281 44.808594 51.765625 45.03125 51.492188 45.03125 Z M 51.492188 45.03125 "/>
<path style=" stroke:none;fill-rule:nonzero;fill:rgb(27.843137%,16.862745%,16.078431%);fill-opacity:1;" d="M 79.324219 45.03125 L 53.480469 45.03125 C 53.203125 45.03125 52.980469 44.808594 52.980469 44.53125 C 52.980469 44.257812 53.203125 44.035156 53.480469 44.035156 L 79.324219 44.035156 C 79.597656 44.035156 79.820312 44.257812 79.820312 44.53125 C 79.820312 44.808594 79.597656 45.03125 79.324219 45.03125 Z M 79.324219 45.03125 "/>
<path style=" stroke:none;fill-rule:nonzero;fill:rgb(87.843137%,65.882353%,14.509804%);fill-opacity:1;" d="M 37.25 49.503906 L 34.917969 49.503906 C 34.1875 49.503906 33.597656 48.914062 33.597656 48.183594 L 33.597656 43.863281 C 33.597656 43.136719 34.1875 42.542969 34.917969 42.542969 L 37.25 42.542969 C 37.976562 42.542969 38.570312 43.132812 38.570312 43.863281 L 38.570312 48.183594 C 38.570312 48.914062 37.980469 49.503906 37.25 49.503906 Z M 37.25 49.503906 "/>
<path style=" stroke:none;fill-rule:nonzero;fill:rgb(27.843137%,16.862745%,16.078431%);fill-opacity:1;" d="M 37.25 50 L 34.917969 50 C 33.917969 50 33.101562 49.183594 33.101562 48.183594 L 33.101562 43.863281 C 33.101562 42.863281 33.917969 42.046875 34.917969 42.046875 L 37.25 42.046875 C 38.25 42.046875 39.066406 42.863281 39.066406 43.863281 L 39.066406 48.183594 C 39.066406 49.183594 38.25 50 37.25 50 Z M 34.917969 43.042969 C 34.464844 43.042969 34.097656 43.410156 34.097656 43.863281 L 34.097656 48.183594 C 34.097656 48.636719 34.464844 49.007812 34.917969 49.007812 L 37.25 49.007812 C 37.703125 49.007812 38.070312 48.636719 38.070312 48.183594 L 38.070312 43.863281 C 38.070312 43.410156 37.703125 43.042969 37.25 43.042969 Z M 34.917969 43.042969 "/>
<path style=" stroke:none;fill-rule:nonzero;fill:rgb(87.843137%,65.882353%,14.509804%);fill-opacity:1;" d="M 69.058594 49.503906 L 66.726562 49.503906 C 65.996094 49.503906 65.40625 48.914062 65.40625 48.183594 L 65.40625 43.863281 C 65.40625 43.136719 65.996094 42.542969 66.726562 42.542969 L 69.058594 42.542969 C 69.785156 42.542969 70.378906 43.132812 70.378906 43.863281 L 70.378906 48.183594 C 70.378906 48.914062 69.785156 49.503906 69.058594 49.503906 Z M 69.058594 49.503906 "/>
<path style=" stroke:none;fill-rule:nonzero;fill:rgb(27.843137%,16.862745%,16.078431%);fill-opacity:1;" d="M 69.058594 50 L 66.726562 50 C 65.726562 50 64.910156 49.183594 64.910156 48.183594 L 64.910156 43.863281 C 64.910156 42.863281 65.726562 42.046875 66.726562 42.046875 L 69.058594 42.046875 C 70.058594 42.046875 70.875 42.863281 70.875 43.863281 L 70.875 48.183594 C 70.875 49.183594 70.058594 50 69.058594 50 Z M 66.726562 43.042969 C 66.273438 43.042969 65.902344 43.410156 65.902344 43.863281 L 65.902344 48.183594 C 65.902344 48.636719 66.273438 49.007812 66.726562 49.007812 L 69.058594 49.007812 C 69.511719 49.007812 69.878906 48.636719 69.878906 48.183594 L 69.878906 43.863281 C 69.878906 43.410156 69.511719 43.042969 69.058594 43.042969 Z M 66.726562 43.042969 "/>
<path style=" stroke:none;fill-rule:nonzero;fill:rgb(100%,100%,100%);fill-opacity:1;" d="M 62.425781 58.449219 C 62.425781 63.9375 57.976562 68.390625 52.484375 68.390625 C 46.996094 68.390625 42.546875 63.9375 42.546875 58.449219 C 42.546875 52.960938 46.996094 48.507812 52.484375 48.507812 C 57.976562 48.507812 62.425781 52.960938 62.425781 58.449219 Z M 62.425781 58.449219 "/>
<path style=" stroke:none;fill-rule:nonzero;fill:rgb(93.333333%,24.313725%,32.941176%);fill-opacity:1;" d="M 57.953125 56.957031 L 53.976562 56.957031 L 53.976562 52.980469 L 50.992188 52.980469 L 50.992188 56.957031 L 47.019531 56.957031 L 47.019531 59.941406 L 50.992188 59.941406 L 50.992188 63.914062 L 53.976562 63.914062 L 53.976562 59.941406 L 57.953125 59.941406 Z M 57.953125 56.957031 "/>
<path style=" stroke:none;fill-rule:nonzero;fill:rgb(27.843137%,16.862745%,16.078431%);fill-opacity:1;" d="M 57.953125 60.1875 L 56.769531 60.1875 C 56.632812 60.1875 56.523438 60.078125 56.523438 59.941406 C 56.523438 59.804688 56.632812 59.691406 56.769531 59.691406 L 57.703125 59.691406 L 57.703125 57.207031 L 53.976562 57.207031 C 53.839844 57.207031 53.726562 57.09375 53.726562 56.957031 L 53.726562 53.230469 L 51.242188 53.230469 L 51.242188 56.957031 C 51.242188 57.09375 51.132812 57.207031 50.992188 57.207031 L 49.75 57.207031 C 49.613281 57.207031 49.503906 57.09375 49.503906 56.957031 C 49.503906 56.820312 49.613281 56.710938 49.75 56.710938 L 50.746094 56.710938 L 50.746094 52.980469 C 50.746094 52.84375 50.855469 52.734375 50.992188 52.734375 L 53.976562 52.734375 C 54.113281 52.734375 54.222656 52.84375 54.222656 52.980469 L 54.222656 56.710938 L 57.953125 56.710938 C 58.089844 56.710938 58.199219 56.820312 58.199219 56.957031 L 58.199219 59.941406 C 58.199219 60.078125 58.089844 60.1875 57.953125 60.1875 Z M 57.953125 60.1875 "/>
<path style=" stroke:none;fill-rule:nonzero;fill:rgb(27.843137%,16.862745%,16.078431%);fill-opacity:1;" d="M 53.976562 64.164062 L 50.992188 64.164062 C 50.855469 64.164062 50.746094 64.054688 50.746094 63.914062 L 50.746094 60.1875 L 47.019531 60.1875 C 46.878906 60.1875 46.769531 60.078125 46.769531 59.941406 L 46.769531 56.957031 C 46.769531 56.820312 46.878906 56.710938 47.019531 56.710938 L 48.230469 56.710938 C 48.367188 56.710938 48.476562 56.820312 48.476562 56.957031 C 48.476562 57.09375 48.367188 57.207031 48.230469 57.207031 L 47.265625 57.207031 L 47.265625 59.691406 L 50.992188 59.691406 C 51.132812 59.691406 51.242188 59.804688 51.242188 59.941406 L 51.242188 63.667969 L 53.726562 63.667969 L 53.726562 59.941406 C 53.726562 59.804688 53.839844 59.691406 53.976562 59.691406 L 55.3125 59.691406 C 55.449219 59.691406 55.558594 59.804688 55.558594 59.941406 C 55.558594 60.078125 55.449219 60.1875 55.3125 60.1875 L 54.222656 60.1875 L 54.222656 63.914062 C 54.222656 64.054688 54.113281 64.164062 53.976562 64.164062 Z M 53.976562 64.164062 "/>
<path style=" stroke:none;fill-rule:nonzero;fill:rgb(27.843137%,16.862745%,16.078431%);fill-opacity:1;" d="M 52.484375 68.886719 C 46.730469 68.886719 42.046875 64.203125 42.046875 58.449219 C 42.046875 57.683594 42.132812 56.917969 42.296875 56.175781 C 42.355469 55.910156 42.613281 55.738281 42.890625 55.800781 C 43.15625 55.859375 43.324219 56.125 43.265625 56.390625 C 43.117188 57.0625 43.042969 57.757812 43.042969 58.449219 C 43.042969 63.65625 47.277344 67.890625 52.484375 67.890625 C 57.691406 67.890625 61.929688 63.65625 61.929688 58.449219 C 61.929688 53.242188 57.691406 49.007812 52.484375 49.007812 C 51.140625 49.007812 49.84375 49.28125 48.625 49.828125 C 48.375 49.9375 48.082031 49.828125 47.96875 49.578125 C 47.859375 49.324219 47.96875 49.03125 48.222656 48.917969 C 49.566406 48.316406 51 48.011719 52.484375 48.011719 C 58.242188 48.011719 62.921875 52.695312 62.921875 58.449219 C 62.921875 64.203125 58.242188 68.886719 52.484375 68.886719 Z M 52.484375 68.886719 "/>
<path style=" stroke:none;fill-rule:nonzero;fill:rgb(27.843137%,16.862745%,16.078431%);fill-opacity:1;" d="M 43.640625 54.402344 C 43.566406 54.402344 43.488281 54.382812 43.414062 54.347656 C 43.171875 54.21875 43.074219 53.921875 43.199219 53.675781 C 43.867188 52.378906 44.824219 51.210938 45.964844 50.300781 C 46.175781 50.128906 46.488281 50.160156 46.664062 50.375 C 46.832031 50.589844 46.800781 50.902344 46.585938 51.074219 C 45.550781 51.902344 44.6875 52.960938 44.082031 54.132812 C 43.996094 54.300781 43.824219 54.402344 43.640625 54.402344 Z M 43.640625 54.402344 "/>
<path style=" stroke:none;fill-rule:nonzero;fill:rgb(99.215686%,98.823529%,93.72549%);fill-opacity:1;" d="M 85.285156 77.335938 C 85.285156 77.335938 86.84375 77.335938 88.765625 77.335938 C 90.6875 77.335938 92.246094 75.777344 92.246094 73.855469 C 92.246094 72.085938 90.917969 70.640625 89.207031 70.421875 C 89.234375 70.242188 89.261719 70.066406 89.261719 69.878906 C 89.261719 67.957031 87.707031 66.402344 85.785156 66.402344 C 84.757812 66.402344 83.84375 66.851562 83.210938 67.558594 C 82.828125 65.761719 81.234375 64.414062 79.324219 64.414062 C 77.128906 64.414062 75.347656 66.191406 75.347656 68.390625 C 75.347656 68.578125 75.375 68.761719 75.402344 68.945312 C 74.976562 68.601562 74.445312 68.390625 73.855469 68.390625 C 72.636719 68.390625 71.625 69.269531 71.414062 70.433594 C 71.238281 70.402344 71.058594 70.378906 70.875 70.378906 C 68.953125 70.378906 67.394531 71.933594 67.394531 73.855469 C 67.394531 75.777344 68.953125 77.335938 70.875 77.335938 C 72.796875 77.335938 78.328125 77.335938 78.328125 77.335938 L 78.328125 77.832031 L 85.285156 77.832031 Z M 85.285156 77.335938 "/>
<path style=" stroke:none;fill-rule:nonzero;fill:rgb(27.843137%,16.862745%,16.078431%);fill-opacity:1;" d="M 87.027344 72.863281 C 86.890625 72.863281 86.777344 72.75 86.777344 72.613281 C 86.777344 71.398438 87.765625 70.410156 88.984375 70.410156 C 89.015625 70.417969 89.714844 70.40625 90.21875 70.542969 C 90.351562 70.578125 90.429688 70.714844 90.394531 70.847656 C 90.359375 70.980469 90.222656 71.058594 90.089844 71.023438 C 89.648438 70.902344 88.996094 70.902344 88.984375 70.90625 C 88.042969 70.90625 87.273438 71.671875 87.273438 72.613281 C 87.273438 72.75 87.164062 72.863281 87.027344 72.863281 Z M 87.027344 72.863281 "/>
<path style=" stroke:none;fill-rule:nonzero;fill:rgb(27.843137%,16.862745%,16.078431%);fill-opacity:1;" d="M 80.8125 77.335938 C 80.8125 77.609375 80.589844 77.832031 80.316406 77.832031 C 80.042969 77.832031 79.820312 77.609375 79.820312 77.335938 C 79.820312 77.058594 80.042969 76.839844 80.316406 76.839844 C 80.589844 76.839844 80.8125 77.058594 80.8125 77.335938 Z M 80.8125 77.335938 "/>
<path style=" stroke:none;fill-rule:nonzero;fill:rgb(27.843137%,16.862745%,16.078431%);fill-opacity:1;" d="M 88.765625 77.832031 L 85.285156 77.832031 C 85.011719 77.832031 84.789062 77.609375 84.789062 77.335938 C 84.789062 77.0625 85.011719 76.839844 85.285156 76.839844 L 88.765625 76.839844 C 90.410156 76.839844 91.746094 75.5 91.746094 73.855469 C 91.746094 72.367188 90.628906 71.105469 89.144531 70.914062 C 89.011719 70.898438 88.890625 70.828125 88.8125 70.71875 C 88.730469 70.613281 88.699219 70.476562 88.71875 70.34375 C 88.742188 70.191406 88.765625 70.039062 88.765625 69.878906 C 88.765625 68.234375 87.429688 66.898438 85.785156 66.898438 C 84.9375 66.898438 84.15625 67.25 83.578125 67.890625 C 83.453125 68.03125 83.257812 68.089844 83.082031 68.039062 C 82.902344 67.992188 82.761719 67.84375 82.722656 67.664062 C 82.382812 66.066406 80.953125 64.910156 79.324219 64.910156 C 77.40625 64.910156 75.84375 66.46875 75.84375 68.390625 C 75.84375 68.53125 75.863281 68.667969 75.882812 68.804688 C 75.914062 69.007812 75.820312 69.238281 75.644531 69.339844 C 75.464844 69.441406 75.25 69.457031 75.089844 69.332031 C 74.730469 69.039062 74.300781 68.886719 73.855469 68.886719 C 72.894531 68.886719 72.074219 69.574219 71.90625 70.519531 C 71.855469 70.785156 71.609375 70.964844 71.339844 70.921875 C 71.1875 70.898438 71.03125 70.875 70.875 70.875 C 69.230469 70.875 67.890625 72.210938 67.890625 73.855469 C 67.890625 75.5 69.230469 76.839844 70.875 76.839844 L 78.328125 76.839844 C 78.601562 76.839844 78.824219 77.0625 78.824219 77.335938 C 78.824219 77.609375 78.601562 77.832031 78.328125 77.832031 L 70.875 77.832031 C 68.679688 77.832031 66.898438 76.046875 66.898438 73.855469 C 66.898438 71.664062 68.679688 69.878906 70.875 69.878906 C 70.933594 69.878906 70.988281 69.882812 71.046875 69.886719 C 71.457031 68.707031 72.574219 67.890625 73.855469 67.890625 C 74.203125 67.890625 74.539062 67.953125 74.859375 68.070312 C 75.023438 65.75 76.964844 63.914062 79.324219 63.914062 C 81.144531 63.914062 82.769531 65.035156 83.449219 66.671875 C 84.128906 66.179688 84.945312 65.902344 85.785156 65.902344 C 87.976562 65.902344 89.761719 67.6875 89.761719 69.878906 C 89.761719 69.925781 89.757812 69.972656 89.757812 70.019531 C 91.488281 70.464844 92.742188 72.035156 92.742188 73.855469 C 92.742188 76.046875 90.957031 77.832031 88.765625 77.832031 Z M 88.765625 77.832031 "/>
<path style=" stroke:none;fill-rule:nonzero;fill:rgb(27.843137%,16.862745%,16.078431%);fill-opacity:1;" d="M 83.300781 76.839844 C 83.140625 76.839844 82.464844 76.839844 82.304688 76.839844 C 82.03125 76.839844 81.808594 77.0625 81.808594 77.335938 C 81.808594 77.609375 82.03125 77.832031 82.304688 77.832031 C 82.464844 77.832031 83.140625 77.832031 83.300781 77.832031 C 83.574219 77.832031 83.796875 77.609375 83.796875 77.335938 C 83.796875 77.0625 83.574219 76.839844 83.300781 76.839844 Z M 83.300781 76.839844 "/>
</g>
</svg>
